<?xml version="1.0" encoding="UTF-8"?>
<svg version="1.1" viewBox="0 0 1600 1600" width="1280" height="1280" xmlns="http://www.w3.org/2000/svg">
<path transform="translate(0)" d="m0 0h1600v1600h-1600z" fill="#763B80"/>
<path transform="translate(0)" d="m0 0h1600v1600h-22l6-38 2-21 1-5 1-14 1-32v-35l-3-16-4-15-5-14-3-5-3-7-6-11-12-17-12-14-1-2 1-19 2-18 3-30 2-21v-35l-3-19-4-11-6-11-7-9-7-8-16-12-2-41-3-20-5-18-8-16-8-10-11-11-17-11-25-12-28-10-19-5-17-4-26-4-33-4-22-2-19-1h-65l-35 2-48 5-15 2h-6l-5-14-8-30-2-6v-7l18 5 6 1h12l14-5 12-11 2-4-4-1-9-5-6-5-4-7-4-9v-17l5-13 6-11 7-10h2l2-4 18-20 22-24 14-16 5-5 11-12 3-5h2l1-4h2l1-4h2l2-5 10-15 10-16 8-16 10-22 6-16 4-10 5-17 4-19 3-25 1-34 5 2 5 4 16 8h12l6-3 4-5 4-13 1-7v-15l-3-18-6-18-12-23-8-12-12-16-13-15-12-13-4-5 18-1 10-4h2l1-4v-11l-5-12-8-13-7-10-9-11-11-12-13-13-11-9-5-4v-2l-5-2v-2l-4-2-11-7v-2l-5-2-11-7-10-6-20-11-4-2 2-2 15-6 6-3 8-6 5-7v-10l-4-4-10-4-16-1-14 2-22 5-4 1-2-16-3-10-5-11-9-17-13-18-10-11-7-8-10-8v-2l-6-3v-2l-4-2-16-11-15-9-26-13-25-8-14-3h-35l-3 2 1 4 9 10 8 7 21 21 10 13 2 4-9-6-14-9-16-9-26-13-20-8-11-4-18-6-21-5-16-4-16-3-36-4-13-1h-28l-35 2-26 4-31 7-26 8-12 5-11 4-18 8-19 10-28 17-15 10-17 12-14 11-11 9-10 9-10 8-9 8-11 9-17 14-18 13-15 10-10 5-15 7-11 5-25 8-19 4-11 2h-28l-21-4-20-8-10-5 5 18 6 10v3h2l4 6 9 10 8 7 15 10 14 6 17 3-3 3-11 4-8 2h-17l-23-7-13-7-15-11-7-8-3-4v16l4 16 7 21 10 20 7 11 10 13 5 5 7 6v2l4 2 11 8 14 8 15 5 8 2-2 4-10 11-11 9-14 9-15 7-15 5-15 2h-26l-12-3-15-7-14-10-7-7-9-13 1 9 5 23 3 9 4 9 8 14 9 13v2h2l3 5 5 5 4 5 7 6 5 5 9 8 18 13 20 12 21 10 18 6 11 3-5 7-10 8-13 6-16 4-11 3-2 3 1 9 2 5h2l5 5 11 8 16 8 15 5 18 3h22l18-3 6-2 4 1-5 5 1 5 5 5 16 8 11 3 15 2h15l13-3h3v63l-4 29-4 22-1 12-1 28-4 9-1 4v13l7 16 5 7v2h2l5 7 4 4 6 15 4 12 6 13 4 11 7 14 9 20 14 29 9 19 10 19 14 27 7 11 5 9 5 6v2h2l7 8 9 8 16 8 11 4 11 2h36l29-4 38-8 12-2 2 5v6l-17 9-19 9-19 11-11 7-18 13-10 8-13 11-15 14-9 11-8 10-9 15-6 15-3 13-1 26-7 12-8 13-6 12-7 4-18 10-19 11-14 9-9 5-15 10-12 9-10 9-12 12-11 14-13 17-12 19-10 18-12 23-13 29-11 27-6 17h-308z" fill="#E99FDE"/>
<path transform="translate(711,44)" d="m0 0h42l35 3 30 5 24 5 21 5 20 5 2 1h7l4-2v-2l12-6 15-3h27l28 5 36 12 24 11 18 10 16 10 14 10 17 9 16 7 25 12 20 11 20 12 33 22 14 10 18 14 13 11 8 7 10 9 7 7 8 7 41 41 7 8 11 13 11 14 11 15 18 27 5 7 5 9 10 17 7 12 11 23 4 8 7 16 5 13 5 12 12 36 7 22 11 44 7 32 4 29 4 34 3 38v60l-4 50-7 58-7 35-8 34-7 23-8 25v2l14 8 14 10 9 8 4 5 2 1v2l4 2 9 14 4 8 4 9 5 21 2 12 3 36 10 10 9 12 9 15 4 9 5 14 5 26v53l-6 50v9l13 20 6 10 9 16v4h2v208h-22l6-38 2-21 1-5 1-14 1-32v-35l-3-16-4-15-5-14-3-5-3-7-6-11-12-17-12-14-1-2 1-19 2-18 3-30 2-21v-35l-3-19-4-11-6-11-7-9-7-8-16-12-2-41-3-20-5-18-8-16-8-10-11-11-17-11-25-12-28-10-19-5-17-4-26-4-33-4-22-2-19-1h-65l-35 2-48 5-15 2h-6l-5-14-8-30-2-6v-7l18 5 6 1h12l14-5 12-11 2-4-4-1-9-5-6-5-4-7-4-9v-17l5-13 6-11 7-10h2l2-4 18-20 22-24 14-16 5-5 11-12 3-5h2l1-4h2l1-4h2l2-5 10-15 10-16 8-16 10-22 6-16 4-10 5-17 4-19 3-25 1-34 5 2 5 4 16 8h12l6-3 4-5 4-13 1-7v-15l-3-18-6-18-12-23-8-12-12-16-13-15-12-13-4-5 18-1 10-4h2l1-4v-11l-5-12-8-13-7-10-9-11-11-12-13-13-11-9-5-4v-2l-5-2v-2l-4-2-11-7v-2l-5-2-11-7-10-6-20-11-4-2 2-2 15-6 6-3 8-6 5-7v-10l-4-4-10-4-16-1-14 2-22 5-4 1-2-16-3-10-5-11-9-17-13-18-10-11-7-8-10-8v-2l-6-3v-2l-4-2-16-11-15-9-26-13-25-8-14-3h-35l-3 2 1 4 9 10 8 7 21 21 10 13 2 4-9-6-14-9-16-9-26-13-20-8-11-4-18-6-21-5-16-4-16-3-36-4-13-1h-28l-35 2-26 4-31 7-26 8-12 5-11 4-18 8-19 10-28 17-15 10-17 12-14 11-11 9-10 9-10 8-9 8-11 9-17 14-18 13-15 10-10 5-15 7-11 5-25 8-19 4-11 2h-28l-21-4-20-8-10-5 5 18 6 10v3h2l4 6 9 10 8 7 15 10 14 6 17 3-3 3-11 4-8 2h-17l-23-7-13-7-15-11-7-8-3-4v16l4 16 7 21 10 20 7 11 10 13 5 5 7 6v2l4 2 11 8 14 8 15 5 8 2-2 4-10 11-11 9-14 9-15 7-15 5-15 2h-26l-12-3-15-7-14-10-7-7-9-13 1 9 5 23 3 9 4 9 8 14 9 13v2h2l3 5 5 5 4 5 7 6 5 5 9 8 18 13 20 12 21 10 18 6 11 3-5 7-10 8-13 6-16 4-11 3-2 3 1 9 2 5h2l5 5 11 8 16 8 15 5 18 3h22l18-3 6-2 4 1-5 5 1 5 5 5 16 8 11 3 15 2h15l13-3h3v63l-4 29-4 22-1 12-1 28-4 9-1 4v13l7 16 5 7v2h2l5 7 4 4 6 15 4 12 6 13 4 11 7 14 9 20 14 29 9 19 10 19 14 27 7 11 5 9 5 6v2h2l7 8 9 8 16 8 11 4 11 2h36l29-4 38-8 12-2 2 5v6l-17 9-19 9-19 11-11 7-18 13-10 8-13 11-15 14-9 11-8 10-9 15-6 15-3 13-1 26-7 12-8 13-6 12-7 4-18 10-19 11-14 9-9 5-15 10-12 9-10 9-12 12-11 14-13 17-12 19-10 18-12 23-13 29-11 27-6 17h-23l2-9 14-37 8-19 9-21 12-25 7-12 6-11 13-19 9-12 8-10 6-8 20-20 8-7 16-13 11-8 5-3v-2l-11-6-22-14-15-10-18-13-14-11-11-9-14-12-16-15-7-7-8-7-8-8-7-8-12-13-9-11-8-9-11-14-8-10-13-18-22-33-10-17-9-16-15-28-13-29-13-34-13-38-11-44-6-29-6-41-3-30-2-43v-32l1-25 4-40 5-30 2-13 5-23 2-11 5-18 6-23 4-12-1-7-9-12-13-23-9-21-7-20-3-14-1-13v-19l3-14 6-8 3-3 4-2 9 1 6 7 12 19 11 11 14 8 9 3 6 1h24l15-2 12-3v-2l-5-2-9-7-5-5-8-7-10-12-10-14-11-20-9-23-6-23v-33l3-10 4-5 9-6h6l-3-9v-17l4-8 9-10 5-2h15l23 9 15 3h28l15-3 15-5 9-7 10-9 9-7 15-12 19-14 17-12 15-10 26-16 14-7 14-8 21-10 24-11 12-6 11-6 12-7 23-11 20-9 14-5 7-3 34-11 23-6 23-4 14-2z" fill="#FCFCFC"/>
<path transform="translate(715,429)" d="m0 0 15 2-5 5-4 5-1 2v10l4 6 7 6 11 6 19 6 15 3 16 2h43l13-2 5-1-4 4-17 11-15 8-3 2 1 4 7 4 12 2h19l18-2 11-2-2 20v11l3 24 4 18 8 19 7 11 5 4 4-1 1-4h2l2 14 3 12 1 10v21l-3 22-6 21-8 16-6 10-12 13-12 10-13 8-14 8-2 6 7 6 13 5 5 1h17l5-1-4 12-1 7v11l5 5h9l12-3 11-6 10-8 5-6h1l1 15 1 5 6-2 6-8 6-12 6-15 4-13 8-42 8-43 7-25 7-20 6-10 8-6 10-5 10-4 8-2h21l12 5 10 9 8 11 9 19 7 21 3 14 3 26v18l-3 21-4 17-7 19-8 17-11 17-8 10-9 10-10 10-14 11-14 9-16 8-13 4h-15l-12-3-8-4-4-1v-2h-6l-1 5 1 4-6 19-5 11-2 4-2 9-9 21-8 17-11 18-10 13 7-6 8-8 11-15 11-19 13-29 10-30h2v2l10 3 8 3h22l12-3 4-2 3 8 8 16 8 10 10 8 8 3 1-9 3-10 2 2 4 19 4 21 3 9 3 12 5 17 10 27 5 14 4 8 10 24 9 19-1 3-22 8-16 6-26 11-53 24-30 15-23 13-21 12-22 14-30 20-23 16-18 13-13 10-11 8h-2v2l-12 9-16 13-3 1v2l-10 8h-2v2l-11 9-4 2-2-28-4-23-7-25-12-36-8-28 1-6 8-10 7-9 12-13 11-10 11-9 10-8 23-16 24-15 25-17 17-13-3 1-16 9-17 8-5 3-13 5-14 6-10 4-16 6-13 5-35 11-9 3-20 6-27 6-28 6-29 4h-33l-17-4-16-8-11-10-10-14-14-24-17-33-8-17-8-16-9-19v-4l11 1 8 1h61l23-2 5-1 31-2 14-4 4-2v-7h-16l-26 8-21 4-24 1-11 1h-45l-17-1-8-16-5-12-4-9-9-21 1-3 13 8 15 5 5 1h13l4-1-3-3-10-5-17-9-19-12-11-9-8-8-7-11-4-11 1-7 7-11 13-18 14-21 11-18 8-13 5-11h2l2-6 7-16 5-18 1-13v-17l-1-12-6-24-2-3v9l1 12h-2l-9-11-9-10-12-10-16-10-10-4-9-2-1-1-3-27v-7l14 7 5 3 9 6 11 6 26 13-7-25-11-24-8-11-2-1 3 10 12 29-1 3-16-33-5-12-1-4-4-2-7-5v-2l-4-2-8-6 1-3 18-13 20-12 13-6 11-4 14-2 36-3 26-4 29-6 21-6 27-9 13-6 9-4 16-8 14-8 16-11 11-9z" fill="#F7C9B2"/>
<path transform="translate(703,83)" d="m0 0h58l18 1 34 5 27 6 30 9 32 12 33 16 28 15 18 12 13 10 13 12 15 14 4 4-10-15-11-14-10-12-12-23-8-12-13-16-17-17 3-1 17 4 24 9 25 12 20 13 12 9 15 13 12 12 11 14 12 19 7 15 4 12 1 5v10l-3 7-2 3 17-4 15-5 20-4 19-1 8 2-2 4-8 7-21 10-6 2-9-1-9-2-11-1v2l6 2 24 14 20 12 19 12 14 10 18 14 10 9 8 7 15 15 4 6-30-10-13-3-14-1-15 2-9 3 9 1 22 7v2l5 2 10 8 8 11 2 7h-10l-14-1 14 9 11 8 15 13 8 9v2h2l6 11v6l-6 10-9 6-12 4-17 3h-7l-4-12-8-16-9-13 7 12 7 14 4 16v30l-1 4-4-2-8-11-1-2 1 9 7 14 11 15 1 5-4 6-6 5-7 3-10 2-14-1-20-5-16-9-12-11v-2l-4 1-2 9-3 10-8 14-12 13-12 9-6 2 3-11 3-13v-18l-12 23-2 5h-2l-2 6-7 10-5 6-5 2h-11l-12-7-10-9-7-9-8-20-2-10 3 24 5 14v2h-7l-17-10-14-11-9-9-9-14-4-7-4-16-1-9-7 16-5 10-4 4-2-8v-15l4-10 7-9 7-6-13 7h-2v2l-5 2-8 4-9 4-20 6-17 3-9 1h-28l4-3 14-8 10-8 7-6 7-8 4-4-16 1-30 3h-35l-31-5-19-7-9-5-5-5v-2h2l2-4 12-11 15-11h-27l-17-3-15-5-16-8-10-8-8-7-3-4v-2h-2l-9-16-2-6v-6h15l21 3 11 1-13-11-5-5-6-9-4-7-4-13v-10l8 6 14 10 13 8 13 6 24 8 11 2h34l22-6 17-9-34 7h-15v-8l5-12 1-2-6 7-12 6-17 3h-13l-15-5-23-12-9-6-13-8-6-3h-2l-2 2-2-1v11l4 2h2l-1 7 4 7v5l-1 4h-3l5 10 3 4v2l-8-1h-19l-4 6v9l4 12 8 13 8 10 5 5 5 3 1 3 5 2 8 5 17 8-5 6-14 10-16 10-17 10-12 5-8 4-17 6-16 6-23 6-16 4-21 4-28 3h-58l-25-4-22-5-10-4-17-8-7-5-3-1v-2l-8-4-7-8 6 9 2 4 6 5 5 5 1 3h3l4 4 11 4 7 4 21 7 24 4 9 1v2l-20 9-7 5h-3v2l-12 8-13 10-8 6-8 7-4 5-8 7-11 10-4 1v2l-12 7-7 3-9 2h-26l-21-3-21-6-14-5-22-11-9-6-7-4-14-10-10-10-14-12-2-3 1-3 5 1v2l9 3 11 5v2l8 1 11 3 10 1h13l13-2 18-6 15-9-18 9-15 5-6 1h-21l-21-5-14-7-7-3-1-3-4-1-3-2v-2l-4-1v-2l-5-2-1-3-5-2-6-6v-2l-4-2-1-4h-2l-4-6 1-2 4 3v2l10 3 16 6 8 2h25l22-4 20-6 9-5 16-10 12-11 7-7 8-11 8-16 3-12v-4l-4 5-8 5h-14l-13-4-13-7-14-11-11-11-10-13-10-17-8-19-2-6 4 2 25 20 21 12 21 8 20 4h25l2-1-9 1h-10l-20-4-22-8-9-4-8-5-8-8 7 1h24l18-4 10-7 4-8v-8l-24-6-10-3v-2l-6-2-11-7-11-9-7-8-4-4 1-2 17 5 8 2h33l20-3 13-3 11-3 16-5 11-5 21-10 17-10 17-12 17-13 13-11 11-9 11-10 11-9 16-13 20-15 24-16 25-15 21-10 15-7 14-5 10-4 27-8 33-7z" fill="#9440B6"/>
<path transform="translate(726,66)" d="m0 0h28l34 3 26 4 19 4 36 10 12 4 9 4 10 4 25 12 19 10 16 10 9 7-6-8-9-11-19-19-8-7-9-10 1-4 3-2h35l21 5 18 6 26 13 15 9 17 12 3 2v2l6 3v2l4 2 13 12 7 8 10 13 10 15 7 13 5 13 3 12v11l7-3 23-5 18-1 11 2 10 5 2 3v10l-7 9-8 6-20 8-1 1 16 8 10 6 11 6 10 7 2 1v2l5 2 10 7v2l5 2v2l4 2 10 8v2l4 2 20 20 9 11 8 11 8 13 6 12 1 3v11l-2 4-12 5-17 1 12 12 7 8 11 13 14 19 11 19 8 17 4 13 3 18v15l-2 11-4 10-5 6-5 2h-12l-16-8-10-7v34l-4 31-5 20-6 19-5 12-11 25-8 15-6 11-7 11-10 15-1 2h-2l-1 4h-2l-1 4h-2l-2 5-12 13-3 4h-2l-2 4-7 8-5 5-16 17-11 12-9 10-6 8h-2l-2 4-8 13-4 8-3 9v17l6 13 4 5 9 6 7 3-2 5-8 8-7 4-11 4h-12l-13-3-10-3 1 10 7 24 5 16 1 6 29-4 23-2 17-2 35-2h65l28 2 31 3 30 4 36 8 16 5 25 9 25 12 16 11 14 14 9 14 6 15 5 23 1 9 2 41 16 12 10 11 7 11 5 11 4 16 1 9v35l-6 64-2 16v8l8 10 9 11 11 17 5 9 3 8 5 12 4 13 3 13 1 8v35l-1 32-1 14-1 5-2 21-6 36-1 2h-18l2-14 5-36 2-18 2-34v-46l-4-19-6-17-8-16-8-12-9-10-7-8-10-9-1-4v-7l2-5h3l1-15 5-46v-56l-3-15-5-12-8-11-8-8-18-13-19-10-21-9v-4l5-1 16 3 20 7-2-33-3-21-6-18-7-12-9-10-14-10-21-11-24-9-27-8-35-7-42-5-32-2h-70l-49 3-46 5v3l7 20 12 29 11 25 1 4 41-9 30-5 38-4 43-2 51-1 35-2 23-2 24-1-3 2-27 9-25 5-22 2-68 3-48 4-37 5-30 6-22 6-33 11-28 11-27 12-26 12-29 14-29 15-23 13-23 14-22 14-28 19-17 12-18 13-12 9-21 16-16 12-16 13-11 9-10 9-11 9-16 15-15 15-7 8-9 10-9 11-12 15-12 17-14 20-9 13-2 1-4-10v-2h-2l1-4 8-13-1-14-3-31v-27l3-28 6-25 8-19 7-14 14-21 11-13 13-13 18-13 5-2-12-38-7-25v-2l-23 11-17 9-24 16-14 10-10 8-13 11-10 9-7 8-8 9-9 14-6 13-4 14-2 15v30l3 63v10h-2l-10-47-3-15h-4l-5 12-4 17v16l3 18 8 27 11 31 7 17v8l-4 8-4-1-12-28-4 2-12 17-13 18-10 14-13 19-34 51-3 4h-135l2-9 11-28 13-30 8-16 14-26 13-21 14-19 11-13 7-8 14-14 16-12 18-11 8-5 26-16 11-6 17-9 10-19 10-16 1-2 1-26 5-19 8-16 8-12 6-7 9-11 9-9 8-7 14-12 18-13 13-9 17-10 19-10 23-11v-6l-1-5-26 6-24 5-29 4h-36l-14-3-15-6-10-6-10-9-5-5v-2h-2l-10-14-6-11-13-24-10-19-11-23-12-24-15-33-4-8-5-13-5-11-5-15-5-12-1-3-3-1-4-5v-2h-2l-8-13-5-12v-13l4-11 1-2 1-28 2-19 4-23 3-21 1-63-16 4h-15l-15-2-16-5-13-7-5-6 1-5 4-4-8 1-6 2-13 2h-22l-18-3-15-5-16-8-14-10-2-4h-2l-4-8v-6l5-5 18-4 14-5 10-6 6-5 4-5-13-4-15-5-25-12-19-12-12-9-10-8-7-6-5-6-6-5-3-4v-2l-3-1-2-5h-2l-13-20-7-12-3-7-6-26-2-8v-7l4 4 9 12 9 8 11 7 8 4 12 4 5 1h26l15-2 15-5 19-9 14-10 9-8 7-8 3-4-8-1-15-5-16-9-13-10-10-10v-2l-4-2-9-12-9-15-10-21-7-22-2-10v-17l11 11v2l4 2 14 10 12 6 21 6h17l14-4 7-3-19-4-16-8-16-12-6-6v-2l-4-2-5-7v-2h-2l-6-12-3-7-2-12 6 2 13 6 15 5 17 3h28l25-5 12-3 21-7 10-5 13-6 15-8 17-12 13-10 11-9 13-11 10-8 9-8 8-7 17-14 16-12 23-16 28-17 12-7 16-8 17-7 10-4 17-6 12-4 33-8 16-3 15-2zm-23 17-27 3-33 7-27 8-24 9-15 7-26 13-22 13-19 13-19 14-16 13-13 11-11 9-11 10-25 20-18 13-18 11-23 12-13 5-8 3-11 4-17 4-16 3-9 1h-33l-16-4-10-3 2 4 13 13 10 8 8 5 6 2v2l21 6 13 3v8l-4 8-10 7-18 4h-24l-7-1 4 4 7 6 9 5 24 9 16 4 7 1h10l11-1-4 1h-25l-20-4-21-8-16-9-10-7-22-18-2 1 9 22 9 16 9 12 11 12 10 9 14 9 11 5 8 2h14l9-6 3-4-1 9-3 10-8 15-11 13-11 11-16 11-12 6-3 2-27 7-13 2h-25l-14-4-18-7h-2v-2l-5-3 2 5 2 3h2l1 4 4 2 2 4 7 6h2l2 4 4 1 1 3h3l1 3 3 2h3l1 3 9 4 12 6 21 5h21l12-3 16-6 12-7-12 8-12 5-14 4-9 1h-13l-14-2-10-3h-5v-2l-18-8h-2v-2l-6-1 1 4 5 6 11 9 5 5 7 6 11 8 11 7 8 5 15 7 11 5 24 7 16 3 9 1h26l11-3 14-7 3-2v-2l5-2 15-14 6-5 4-5 11-9 11-8 14-10 2-1v-2l4-1 8-5 18-8v-2l-27-4-12-3-10-3-16-8-8-3-3-3h-3l-2-4-5-5-5-4-4-7-4-6 7 8 6 4h2v2l9 5 15 8 12 4 5 2 22 5 21 3h58l34-4 29-6 21-6 16-5 8-3 13-5 15-7 12-6 17-10 15-10 11-9 2-3-19-9-9-6h-2l-2-4-6-4-9-10-7-11-4-7-3-10v-9l4-6h19l8 1-2-5-5-8v-3h2l1-9-4-7 1-7-4-1-2-1v-11l3 1 1-2 6 2 12 7 11 7 16 9 10 5 13 4h13l17-3 12-6 7-9-7 16v8h15l29-6 5-1-17 9-22 6h-34l-18-4-12-4-12-5-15-8-15-11-9-7-2-1v10l4 13 9 15 5 5 11 10 2 2-26-3-5-1h-15l1 9 7 14 3 5h2l2 4 6 7 13 10 16 8 15 5 17 3h27l-16 12-13 12v2h-2l2 4 6 5 13 6 12 4 31 5h35l38-4h8l-10 10-4 5-14 11-16 9-2 2h28l21-3 16-4 12-4 9-4 6-4 4-1v-2l6-2 9-5-10 9-6 10-2 6v15l2 8 4-4 8-16 4-10 3 19 4 9 6 11 8 10 8 8 17 12 12 7h7l-3-10-3-11-2-19 4 16 6 14 7 9 7 7 15 9h11l6-3 8-10 5-9v-2h2l3-7 8-16 3-5v18l-5 19-1 5 8-3 11-9 7-7 7-10 5-9 4-12 1-7 4-1 2 4 10 9 12 7 11 4 13 3 14 1 14-3 8-6 4-5 1-5-11-16-6-10-2-5-1-9 6 9 5 6h2l1-4v-30l-4-16-8-16-6-10 9 13 6 11 6 17h7l20-4 11-4 8-6 5-9v-6l-6-11h-2l-2-4-7-8-10-9-12-9-15-10-2-1 14 1h10l-3-8-8-11-10-8-4-1v-2l-22-7-9-1 14-4 16-1 17 3 17 5 15 6 2-1-12-13-13-13-11-9-12-10-18-13-19-12-18-11-24-14-9-5h-2v-2l17 2 7 2 8-1 20-9 9-6 5-5v-2l-8-2-19 1-20 4-22 7-11 2 4-4 2-6v-10l-3-12-8-18-9-15-8-11-11-13-12-12-11-9-13-10-21-13-25-12-22-8-17-4-3 1 20 20 13 17 8 14 9 17 11 13 13 17 8 12-14-14-8-7-13-12-18-13-15-9-26-14-22-11-27-11-30-10-26-7-27-5-22-3-18-1zm12 346-11 11-19 14-19 11-26 13-16 6-26 9-27 7-31 6-23 3-38 3-11 3-15 7-14 8-12 8-15 11 1 3 9 7h2v2l8 6 3 1 1 4 5 12 16 33 1-3-15-37v-2l5 5 7 11 9 20 7 25-26-13-12-7-8-5-9-5-8-5h-2l1 15 2 19 5 2 13 4 12 7 12 9 12 11 11 13 1 2h2l-1-21 2 3 6 24 1 12v17l-2 18-6 18-7 15v2h-2l-7 14-10 17-14 22-13 18-11 16-4 8 1 8 7 14 11 12 11 9 21 13 19 10 8 5 1 1-4 1h-13l-14-4-9-4-11-6 1 5 5 11 3 8 5 12 4 9 5 9 3 7 17 1h45l11-1 24-1 21-4 20-6 6-2h16v7l-10 4-8 2-31 2-18 2-10 1h-61l-13-2h-6l1 6 10 21 6 12 11 23 16 31 15 25 11 13 10 8 13 6 17 4h33l29-4 28-6 30-7 25-7 8-3 34-11 7-3 12-4 9-4 10-4 11-5 13-5 17-9 14-7 9-5-11 9-17 12-23 15-19 12-17 12-9 7-12 9-5 5-12 11-12 13-11 15-2 3 1 9 5 15 4 13 11 34 7 26 3 19 2 28 5-3 10-8v-2l4-2 8-6v-2l4-2 17-14 10-7v-2l5-2 5-4 20-15 18-13 19-13 24-16 17-11 25-15 25-14 27-14 27-13 20-9 30-13 21-8 10-4 17-6 1-3-11-23-11-27-4-10-8-22-4-10-7-23-3-13-4-16-4-23-2-5-2 2-3 12v5l-9-4-10-8-8-11-8-16-2-6-7 3-9 2h-22l-16-6h-2v-2h-2l-10 30-14 31-10 17-9 12-9 10-5 4-1 1 13-19 10-18 8-18 6-15 2-8 4-9 4-11 4-12-1-8 2-1h5v2l10 4 9 3 5 1h15l18-6 18-10 12-9 13-11 13-13 13-17 11-19 8-18 6-19 4-22 1-9v-18l-3-26-5-21-7-19-9-17-7-9-9-8-12-5h-21l-13 4-12 5-11 8-6 10-11 33-6 27-9 50-4 20-6 19-6 13-6 11-5 6-5 1-1-5-1-15-5 5-8 7-14 8-12 3h-9l-5-5v-11l2-9 3-10-5 1h-17l-11-3-10-5-4-4 2-6 21-12 12-9 12-11 10-13 8-15 7-21 3-17 1-10v-21l-2-14-3-13-1-9h-2l-2 5-5-1-7-9-7-14-4-10-5-23-2-19v-11l2-20-17 3-12 1h-19l-12-2-8-5v-3l7-4 16-9 16-11-2-1-6 2-10 1h-43l-27-4-17-5-12-5-10-7-5-6-1-2v-10l4-6 6-5v-1z" fill="#27102B"/>
<path transform="translate(1196,1008)" d="m0 0h70l32 2 42 5 35 7 27 8 19 7 21 10 15 10 12 11 8 13 6 16 3 16 2 25v17l-11-3-12-4-16-2-2 1v2l27 12 13 7 15 11 10 9 7 8 7 14 3 11 1 7v56l-6 55-1 6-5-2-18-12-21-12-22-11-19-8-24-9-32-9-34-7-32-4-26-2-4-1-13-1-19-6-17-4-15-2h-35l-36 4-27 5-28 7-33 10-25 9-40 16-28 13-25 12-33 17-17 10-20 12-36 24-15 11-11 9-13 11-8 7-13 12-10 10-11 9-13 8-28 15-22 12-18 10-29 16-16 8-10 3h-11l-5-2 1-8 6-17 10-20 10-16 8-11 13-19 13-18 11-14 13-15 11-12 7-8 19-19 8-7 28-24 28-22 21-16 16-12 18-13 20-14 39-26 21-13 22-13 24-13 27-14 31-15 29-13 29-12 33-12 27-8 22-5 36-6 38-4 27-2 68-3 22-2 25-5 27-9-33 2-23 2-23 1-51 1-43 2-38 4-35 6-31 7h-5l-8-17-16-38-7-19-2-7 2-1 46-5z" fill="#9C589C"/>
<path transform="translate(703,83)" d="m0 0h58l17 2 3 3v9l-5 12-9 9-13 8-16 9 22-2h21l14 2 20 6 15 7-3 2-25 6-21 8-11 7-13 11-7 8-3 3-5-2-10-8-10-9-8-8-10-15-5-8-4-14v-13h-2l-2 4-8 14-5 13-2 10v14l3 13 6 13-2 4-6 5-10 14-8 17-6 19-2 13v9l4 16 4 9 2 17 3 9 5 12 5 7v2l-8-1h-19l-4 6v9l4 12 8 13 8 10 5 5 5 3 1 3 5 2 8 5 17 8-5 6-14 10-16 10-17 10-12 5-8 4-17 6-16 6-23 6-16 4-21 4-28 3h-58l-25-4-22-5-10-4-17-8-7-5-3-1v-2l-8-4-7-8 6 9 2 4 6 5 5 5 1 3h3l4 4 11 4 7 4 21 7 24 4 9 1v2l-20 9-7 5h-3v2l-12 8-13 10-8 6-8 7-4 5-8 7-11 10-4 1v2l-12 7-7 3-9 2h-26l-21-3-21-6-14-5-22-11-9-6-7-4-14-10-10-10-14-12-2-3 1-3 5 1v2l9 3 11 5v2l8 1 11 3 10 1h13l13-2 18-6 15-9-18 9-15 5-6 1h-21l-21-5-14-7-7-3-1-3-4-1-3-2v-2l-4-1v-2l-5-2-1-3-5-2-6-6v-2l-4-2-1-4h-2l-4-6 1-2 4 3v2l10 3 16 6 8 2h25l22-4 20-6 9-5 16-10 12-11 7-7 8-11 8-16 3-12v-4l-4 5-8 5h-14l-13-4-13-7-14-11-11-11-10-13-10-17-8-19-2-6 4 2 25 20 21 12 21 8 20 4h25l2-1-9 1h-10l-20-4-22-8-9-4-8-5-8-8 7 1h24l18-4 10-7 4-8v-8l-24-6-10-3v-2l-6-2-11-7-11-9-7-8-4-4 1-2 17 5 8 2h33l20-3 13-3 11-3 16-5 11-5 21-10 17-10 17-12 17-13 13-11 11-9 11-10 11-9 16-13 20-15 24-16 25-15 21-10 15-7 14-5 10-4 27-8 33-7z" fill="#EB59C2"/>
<path transform="translate(1246,1279)" d="m0 0h40l40 3 32 5 30 7 26 8 27 10 29 14 16 9 20 14 11 9 17 16 9 10 10 14 8 16 6 16 4 16 1 6v46l-2 34-1 8-13 2h-30l-23-5-30-9-46-15-44-17-39-16-33-13-43-14-36-9-39-7-19-2-19-1h-50l-50 3-56 7-45 7-48 8-66 12-41 9-19 5h-4l-2-3 1-4 14-11 12-10 19-14 20-14 17-11 21-13 25-14 33-17 36-17 33-14 35-14 36-13 34-11 39-11 28-7 28-5 20-2z" fill="#9C589C"/>
<path transform="translate(959,899)" d="m0 0h2v2l10 3 8 3h22l12-3 4-2 3 8 8 16 8 10 10 8 8 3 1-9 3-10 2 2 4 19 4 21 3 9 3 12 5 17 10 27 5 14 4 8 10 24 9 19-1 3-22 8-16 6-26 11-53 24-30 15-23 13-21 12-22 14-30 20-23 16-18 13-13 10-11 8h-2v2l-12 9-16 13-3 1v2l-10 8h-2v2l-11 9-4 2-2-28-4-23-7-25-12-36-8-28 1-6 8-10 7-9 12-13 11-10 11-9 10-8 23-16 24-15 25-17 17-13-3 1-16 9-17 8-5 3-13 5-14 6-10 4-16 6-13 5-35 11-9 3-20 6-25 5 1-2 26-8 34-13 26-12 29-15 17-10 20-12 17-12 13-10 15-13 10-9 9-9 9-11 8-9 15-20 10-15 8-14 3-3-1 7-9 21-8 17-11 18-10 13 7-6 8-8 11-15 11-19 13-29z" fill="#D97292"/>
<path transform="translate(692,1162)" d="m0 0h3l4 13 11 36 4 12v4l-11 7-14 11-14 14-10 13-12 19-8 16-7 18-5 22-3 28v27l3 31 1 14-9 14-1 3h2l4 8 1 5-8 13-11 23-5 15-1 5 5 1h11l13-4 30-16 36-20 46-25 11-7 14-12 15-15 8-7 15-13 14-11 16-12 32-21 28-17 22-12 33-17 34-16 26-11 34-13 33-11 33-9 24-5 27-4 21-2h35l20 3 26 7 5 2 13 1 4 1 36 3 27 4 29 6 25 7 20 7 21 8 33 16 21 12 19 13-2 6v10l-8-6-13-10-16-10-14-8-27-13-27-10-26-8-30-7-32-5-40-3h-40l-33 2-26 4-31 7-49 14-43 14-24 9-47 19-27 12-30 14-24 12-22 12-22 13-22 14-16 11-18 13-17 13-34 28-11 9-16 13-13 11-13 10-18 14-11 8-16 11-17 10-15 6-12 3h-12l-20-9-9-7-10-14-14-29-9-22 3-1 2-6 1-2v-8l-8-20-13-37-6-23-2-13v-16l4-17 5-12 5-2 3 11 6 30 4 18v5l1-2-1-28-2-43v-30l2-15 5-17 9-17 11-14 8-8 5-6 8-7 14-12 16-12 27-18 18-10 17-8z" fill="#511A5A"/>
<path transform="translate(847,272)" d="m0 0 3 1-9 15-2 6v8l3 8 2 3 7-1 23-8 16-8 14-10 3-3 2 1-9 14-8 17-8 22-2 13 20-1 14-3 12-5 13-7 12-9 10-8h2v16l-1 24-2 5-1 11-2 11 5-5 8-9h2l5 11 3 12 1 7v9l-3 15-5 12-6 11-10 13-3 4 3 18 6 16 7 11 5 4h5l10-19 6-9h1l3 27 1 1 4-36 7-39 4-14h2l9 21 7 11-1 3-1 1 16-12 13-10 10-7 3-3 9-6 2 19 5 21 8 20 10 18 8 13v13l-3 10-8 14-12 13-12 9-6 2 3-11 3-13v-18l-12 23-2 5h-2l-2 6-7 10-5 6-5 2h-11l-12-7-10-9-7-9-8-20-2-10 3 24 5 14v2h-7l-17-10-14-11-9-9-9-14-4-7-4-16-1-9-7 16-5 10-4 4-2-8v-15l4-10 7-9 7-6-13 7h-2v2l-5 2-8 4-9 4-20 6-17 3-9 1h-28l4-3 14-8 10-8 7-6 7-8 4-4-16 1-30 3h-35l-31-5-19-7-9-5-5-5v-2h2l2-4 12-11 15-11h-27l-17-3-15-5-16-8-10-8-8-7-3-4v-2h-2l-9-16-2-6v-6h15l21 3 11 1-13-11-5-5-6-9-4-7-4-13v-10l8 6 14 10 13 8 13 6 24 8 11 2h34l22-6 17-9-34 7h-15v-8l5-12 8-11 6-7 10-7 16-9 21-9z" fill="#EA59C2"/>
<path transform="translate(1100,1460)" d="m0 0h29l12 22 14 27 25 45 16 29 8 14v3h-329l2-6 12-23 12-22 16-30 16-27 7-11 20-4 59-9 39-5 21-2z" fill="#9C589C"/>
<path transform="translate(624,638)" d="m0 0h35l17 3 14 2 26 10 17 9 9 7 6 9v4h2l1 6 1 12 3 6 9 7 3 2v2l4 2 11 12 9 14 8 17 3 11 1 6v26l-4 18-10 21-9 12-11 12-9 8-14 8-16 6-16 4-9 1h-13l-17-2-16-5-14-7-13-10-9-11-6-10-6-18-2-17 1-21 4-19 7 1 11 3 6 2 6 1h22l15-2 14-5 11-7 10-9 7-8 5-8 3-9 3-17v-17l-4-5-7-4-8-4-26-8-28-5 3 19v29l-3 16-5 12-7 6-2 1h-8l-8-5-8-14-3-8-3-14-2-22-1-5-9 19-4 12-3 4v-17l2-14-7 8-6 5 4-17 7-30 3-8 5-5 7-5z" fill="#F4A89E"/>
<path transform="translate(993,951)" d="m0 0 4 1 9 7 12 6 10 3h11l11-5 13 11 8 5 3 12 5 17 10 27 5 14 4 8 10 24 9 19-1 3-22 8-16 6-26 11-53 24-30 15-23 13-21 12-22 14-30 20-23 16-18 13-13 10-3-1 5-9 22-32 12-18 19-29 15-23 13-21 15-25 13-22 10-18 14-27 15-31 12-28 11-27z" fill="#F7C9B2"/>
<path transform="translate(1041,619)" d="m0 0h21l12 5 10 9 8 11 9 19 7 21 3 14 3 26v18l-3 21-4 17-7 19-8 17-11 17-8 10-9 10-10 10-14 11-14 9-16 8-13 4h-15v-1h10l1-5 9-2 1-1h-12l-10-4-7-7-3-5v-17l4-7 2-7 6-7h2v-2l10-4h3l3-12 3-1 2 5 8 7-1-4-2-3v-5h9l3 3h4v-2l7-3 3-2 12-1 1-4-9-1-1-4-6 1-14 4-17 5-10 3-9 4-14 5-4-1 1-3h2l2-6 2-4h2l2-5 16-23 4-9v-12l-4-14-1-5v-16l5-19 3-7-1-10v-12l3-19v-6l-2-2-1-2 6-10 8-6 10-5 10-4z" fill="#F6C7B2"/>
<path transform="translate(1133,1460)" d="m0 0 29 1 31 4 23 5 33 11 30 13 26 14 18 10 19 12 19 14 14 11 14 12 11 11 15 20v2h-208l-6-10-12-23-18-36-12-22-20-38-6-9z" fill="#9C589C"/>
<path transform="translate(1116,1446)" d="m0 0h46l24 2 34 6 25 6 26 9 24 11 23 13 24 15 15 10 19 14 13 11 10 8 16 15 12 11 17 17 6 4v2h-35l-8-11-10-13-12-12-11-9-18-14-20-14-22-13-28-15-16-8-24-10-33-11-25-5-26-3-27-1-2-1 8 13 12 23 10 19 14 26 8 15 8 17 10 19 4 8h-3l-6-11-12-23-13-23-12-22-16-29-16-31h-29l-32 2-34 4-62 9-28 5-4 1-16 27-10 18-15 28-14 26-10 19h-98l8-16 14-27 13-23 5-10-8 1-42 15-33 13-8 3-3-1 19-10 23-13 25-12 33-13 26-10 40-14 27-8 34-8 37-7 39-6 43-5 26-2z" fill="#27102B"/>
<path transform="translate(1196,1008)" d="m0 0h70l32 2 42 5-3 2 21 12 16 12 10 9 7 7 8 13v2h12v1l-30 2-23 2-23 1-51 1-43 2-38 4-35 6-31 7h-5l-8-17-16-38-7-19-2-7 2-1 46-5z" fill="#763B80"/>
<path transform="translate(1171,349)" d="m0 0h13l20 6v2l5 2 10 8 8 11 2 7h-10l-14-1 14 9 11 8 15 13 8 9v2h2l6 11v6l-6 10-9 6-12 4-17 3h-7l-4-12-8-16-9-13 7 12 7 14 4 16v30l-1 4-4-2-8-11-1-2 1 9 7 14 11 15 1 5-4 6-6 5-7 3-10 2-14-1-20-5-16-9-12-11-10-13-11-20-4-10-6-25-2-13v-9l4 4 7 10 7 6 5 2h9l6-9 10-21 5-17-1-10-10-24 1-2 8 7-6-7-4-5 2-1 17 3h27l2-1-1-4-8-9z" fill="#EA59C2"/>
<path transform="translate(1187,1254)" d="m0 0h35l20 3 26 7 5 2 13 1v1l-46 1-34 3-66 10-31 6-36 9-30 10-15 7 24-7 27-6 13-3 4 1-25 9-41 15-27 11-37 16-34 16-28 15-24 14-24 15-25 17-14 10-12 9-30 23-16 13-14 12-11 9-17 14-17 13-18 13-16 11-13 8-19 9-9 3h-15l-5-5-3-5-1-5v-10l3-15 2-3v2l5 1h11l13-4 30-16 36-20 46-25 11-7 14-12 15-15 8-7 15-13 14-11 16-12 32-21 28-17 22-12 33-17 34-16 26-11 34-13 33-11 33-9 24-5 27-4z" fill="#763B80"/>
<path transform="translate(691,1164)" d="m0 0 1 2-4 4-18 13-21 18-7 8-10 11-9 12-10 15-8 14-8 17-7 20-4 20-1 8v19l3 27 8 47 8 44 4 24-1 8-8 19-5 17-3 16v18l-5-5-9-14-8-15-11-25-12-30-13-36-8-27-3-18v-16l4-17 5-12 5-2 3 11 6 30 4 18v5l1-2-1-28-2-43v-30l2-15 5-17 9-17 11-14 8-8 5-6 8-7 14-12 16-12 27-18 18-10 17-8z" fill="#763C80"/>
<path transform="translate(1261,739)" d="m0 0h1l1 10v30l-2 24-4 24-6 25-12 36-13 29-14 27-15 24-3 3-21 2-38 3-5 1h-15v-3l17-6 12-7 9-8 7-12 2-7v-14l-7-7-9-6-4-4-2-5v-13l5-12 8-12 11-13 11-12 12-13 10-10 7-8 13-13 7-8 11-12 18-22z" fill="#E99FDE"/>
<path transform="translate(676,86)" d="m0 0h12l-3 2-18 6-35 13-34 16-23 13-22 14-18 13-21 16-11 9-13 11-11 9-13 11-22 18-10 9-5 6-5 12-3 22 39-14h5l7 8 1 3-17 16-10 10-10 13-8 13-6 13-5 16-7 3-24 6-5-1-5-8-6-22-1-8v-12l3-12 5-12 8-15 10-14v-1l-27 13-19 7-23 6-20 4-16 2h-28l-21-3-4-1 1-3h3v-4h41l20-3 13-3 11-3 16-5 11-5 21-10 17-10 17-12 17-13 13-11 11-9 11-10 11-9 16-13 20-15 24-16 25-15 21-10 15-7 14-5 10-4 27-8z" fill="#F7BDE8"/>
<path transform="translate(715,429)" d="m0 0 15 2-5 5-4 5-1 2v10l4 6 7 6 5 3-2 4-12 10-18 12-16 9-27 13-24 9-27 9-23 6-29 6-35 5-26 2h-28l-20-1-19 10h-4l-2-1v-2l-4-2-8-6 1-3 18-13 20-12 13-6 11-4 14-2 36-3 26-4 29-6 21-6 27-9 13-6 9-4 16-8 14-8 16-11 11-9z" fill="#D97292"/>
<path transform="translate(530,1474)" d="m0 0 3 1 24 56 12 25 10 14 10 7 18 8 3 1 20 1 9 1h25l34-3 54-7 35-6h4l-1 4-12 23-1 1h-334l4-7 36-54 24-34 13-18 9-12z" fill="#9C589C"/>
<path transform="translate(654,564)" d="m0 0h43l24 5 19 7 14 7 12 9 9 9 6 10 3 7 1 7-24-7-25-4h-26l-50 6-41 7-15 4-7 2h-5v2l-8 3-16 2v2h-12v-2l-6-1-8-6-6-8-2-6v-17l3-8 3-4 9-2 7-4h2l1 3 5-4 7-3 13-4 38-8z" fill="#26102A"/>
<path transform="translate(696,1170)" d="m0 0 2 2 12 39 4 12v4l-11 7-14 11-14 14-10 13-12 19-8 16-7 18-5 22-3 28v27l3 31 1 14-11 18-3 5-2-2-11-56-6-33-4-26-1-10v-21l3-17 5-17 7-17 11-21 8-12 10-14 9-10 7-8 23-23 11-9z" fill="#763C80"/>
<path transform="translate(470,789)" d="m0 0 6 2 15 9 16 15 10 13 8 15 5 15 1 6v19l-4 13-7 12-11 13-14 14-5 3-11-6-21-11-19-12-11-9-8-8-7-11-4-11 1-7h1l1 6 7 2 1-7 12-17 18-27 11-17z" fill="#F5A99E"/>
<path transform="translate(155,1242)" d="m0 0h5l3 5 3 8 8 11 6 11 1 5v15l10-16 12-13 6-7 9-7 6-3 4 1 5 8 5 17 2 15v18l-4 13-8 16-6 9-7 7-10 6-11 4-5 1h-19l-9-2-10-5-10-9-9-10-7-12-3-15-1-7v-13l2-10 7-13 9-12 2-3h2l2-4z" fill="#F4B3EB"/>
<path transform="translate(1514,296)" d="m0 0h4l9 18 8 11 3 8v19l10-16 11-13 13-13 10-6 4 1 6 12 5 16 1 6v27l-8 16-9 14-9 10-8 6-13 5-7 1h-18l-12-4-10-6-9-8-10-14-4-8-2-10-1-21 2-9 6-12 8-11 9-10 9-8z" fill="#F4B3EB"/>
<path transform="translate(1047,643)" d="m0 0h8l8 4 5 5 4 5 2 6h2l4 11 2 15-1 4-6-12-6-4-8-1-5 4-4 7-1 8 8 9 5 9 6 18v22l-4 16-7 14-9 10-13 6-13 4-15 4-16 5-9 4-14 5-4-1 1-3h2l2-6 2-4h2l2-5 16-23 4-9v-12l-4-14-1-5v-16l5-19 7-15 8-15 8-11 9-10 8-6z" fill="#D97292"/>
<path transform="translate(30,985)" d="m0 0 4 2 6 15 8 13 3 7 1 5 1 14 7-11 8-10 11-12 10-9 6-2h6l6 17 3 13 1 6v24l-5 14-10 18-8 10-11 7-11 4-11 2h-19l-11-4-10-7-11-11-2-5h-2v-69l12-14 7-8z" fill="#F4B3EB"/>
<path transform="translate(74,1402)" d="m0 0 3 3 4 12 11 17 3 8 1 16v2l6-9 8-11 11-12 11-11 10-3 4 4 5 15 3 15 1 10v15l-6 16-8 15-9 11-10 6-13 5-4 1h-18l-12-3-11-6-13-13-7-10-5-11-2-12v-23l7-14 10-14 12-13z" fill="#F4B3EB"/>
<path transform="translate(123,31)" d="m0 0 4 1 8 18 6 9 3 7 1 5v15l12-17 11-12 8-8 12-6h4l4 8 4 12 3 17v17l-5 16-8 16-8 10-8 7-12 6-8 2h-22l-9-3-12-7-12-12-6-8-5-11-2-11v-27l7-14 10-13 9-10z" fill="#F4B3EB"/>
<path transform="translate(1425,30)" d="m0 0 4 2 3 9 13 24 2 7v11l-1 5 3-3 10-15 10-10 7-8 8-6 7-3 4 1 4 9 3 10 3 29-2 14-8 19-10 15-7 6-16 7-4 1h-25l-10-3-10-6-6-5-9-12-7-13-3-17v-20l4-10 7-11 8-10 11-11z" fill="#F4B3EB"/>
<path transform="translate(385,572)" d="m0 0h2l5 24 9 45 7 36v9l-14 1h-10l-19-2-16-4-4-3 7-10 9-17-28 7-16 3-10 1h-18l-14-2-17-5-15-8-7-5 4-2 16-5 11-6 10-8 9-14 2-3 14 1h20l17-3 16-7 10-6 11-9z" fill="#84398E"/>
<path transform="translate(49,669)" d="m0 0 5 1 4 12 6 10 7 11 1 4 1 15v2l10-13 9-11 17-16h1l-1 15-3 31-1 25v32l1 16v20h-1l-2-34-17 5-17 2h-8l-13-3-10-6-7-6-10-14-5-10-3-12-1-9v-18l5-12 8-13 12-14 7-7z" fill="#F4B4EB"/>
<path transform="translate(661,674)" d="m0 0 13 1 22 5 21 7 10 5 7 6 1 2v17l-3 17-4 10-7 11-12 12-16 10-16 5-11 1h-22l-11-2-5-2-9-3-6-5-7-12-4-12-2-12v-15l6-17 8-17h1l3 30 4 18 8 15 5 5 4 2h8l6-4 4-6 4-12 2-12v-29l-2-12z" fill="#FCFBFB"/>
<path transform="translate(637,651)" d="m0 0h28l23 3 9 3 12 3 16 7 13 8 8 8 4 8v10l-5 14-10 18-4 6-1-4 1-1 3-17v-17l-4-5-7-4-8-4-26-8-28-5 3 19v29l-3 16-5 12-7 6-2 1h-8l-8-5-8-14-3-8-3-14-2-22-1-5-9 19-4 12-3 4v-17l2-14-7 8-6 5 4-17 7-14 6-8 7-7 11-6 7-2z" fill="#27102B"/>
<path transform="translate(68,450)" d="m0 0 4 4 2 6 2 9 11 12 4 7 1 5-1 14-4 13-5 10 1 1 2-2 3-10 7-11 7-12h3l1-2 7 17 8 16 8 14 9 12-1 4-11 8-10 6-12 4-5 1h-18l-11-4-8-4-4-3v-2h-2l-7-8-7-9-5-8-3-13-1-9v-16l4-11 6-10 7-9 9-11 6-7z" fill="#F4B3EB"/>
<path transform="translate(692,1162)" d="m0 0h3l2 5-1 4-8 6-13 11-24 24-9 11-9 12-11 17-12 23-7 19-4 15-2 13v21l3 25 9 50 10 50 1 1 3-6 3 1 4 8 1 5-8 13-11 23-7 21-3 15v10l3 9 5 5 10 1 2 3 7-1h9l3-2h4l-2 4-12 5-12 3h-12l-20-9-9-7-10-14-14-29-9-22 3-1 2-6 2-7 2 3 12 28 10 21 10 16 4 5v-17l5-24 7-19 5-12-1-11-10-57-8-46-3-22-1-11v-19l3-19 4-15 8-21 11-21 12-18 11-14 12-13 4-5 8-7 14-12 14-10 4-3h2v-3l-3-1z" fill="#511A5A"/>
<path transform="translate(1248,1148)" d="m0 0h11v4l-8 2-41 7-39 8-40 10-33 10-36 13-39 16-28 13-28 14-23 13-18 10-22 14-33 22-13 10-19 14-18 14-13 10-16 13-11 9-13 11-15 13-12 11-8 7-12 11-5 4-4 1 2-4 9-11 7-7 7-8 21-21 8-7 14-13 11-9 14-12 17-13 16-13 19-14 18-13 16-11 22-14 20-12 23-13 31-16 28-13 42-17 33-12 41-12 35-8 35-6 36-4z" fill="#521B5B"/>
<path transform="translate(1100,1460)" d="m0 0h29l8 15-1 2-1-1h-19l-35 2-34 4-34 7-27 9-18 8-21 10-10 7-15 24-8 14-15 25-8 14h-16l2-6 12-23 12-22 16-30 16-27 7-11 20-4 59-9 39-5 21-2z" fill="#763B80"/>
<path transform="translate(1584,1065)" d="m0 0h2l6 13 6 21v27l-5 12-8 14-11 13-10 7-4 2-2 2-10-16-14-15-1-1-3-36-4-21-4-17 7 6 6 9 4 11 2 11-1 4 8-13 9-11 9-10 9-8z" fill="#F5B4EB"/>
<path transform="translate(201,334)" d="m0 0 4 2 25 20 21 12 21 8 20 4h25l2-1-9 1h-10l-20-4-22-8-9-4-8-5-8-8 7 1h24l12-3 3 1-9 3-9 2h-18l-2-1 4 4 16 8 17 6 13 2h15l28-4 6-1 7-4 2 1-3 3-3 14-6 11-9 8-14 7-3 1-1 5-2-3-4 5-8 5h-14l-13-4-13-7-14-11-11-11-10-13-10-17-8-19z" fill="#9340B4"/>
<path transform="translate(413,662)" d="m0 0 2 3 10 42 2 8 5 13 5 6 7 1 5-6 2-10v-32l-1-14 7 6 12 13 7 10 2 4 1 13-3 19-3 10-7 14-5 7-4 2 2 3-22 33-10 14-8 10-4 3v-11l5-49 1-18v-11l-2-27-6-44z" fill="#FCFAFB"/>
<path transform="translate(1e3 22)" d="m0 0 5 1 6 12 11 12 5 9 2 6 1 11 3-3 10-17 8-11 9-11 8-6 7 1 8 16 4 14 2 14v11l-3 13-7 14-4-2-16-10-21-12-24-11-36-12-5-1 2-6 10-15 8-10z" fill="#F5B4EB"/>
<path transform="translate(530,1474)" d="m0 0 3 1 24 56 12 25 5 7-1 2-6-4-9-10-7-7-9-11-12-15-3-3-16 23-22 33-11 17-8 12h-27l4-7 36-54 24-34 13-18 9-12z" fill="#763B80"/>
<path transform="translate(476,290)" d="m0 0 4 1 7 7 8 7 13 10 8 6 1 2-8 16-11 20-2 2h-58l-4-3v-10l7-17 8-12 11-13 7-8z" fill="#F8BEE8"/>
<path transform="translate(410,863)" d="m0 0h1l1 6 24 7 25 5 27 4 20 6 10 5 4 5-1 5-6 8-9 10-11 11-5 3-11-6-21-11-19-12-11-9-8-8-7-11-4-11z" fill="#D87191"/>
<path transform="translate(1041,619)" d="m0 0h21l12 5 10 9 8 11 9 19 5 14-1 6-15 7-7 1-1 2-3-19-3-11h-2l-5-9-2-4-12-6h-8l-12 5-12 11-10 14-11 21-2-2-1-6v-12l3-19v-6l-2-2-1-2 6-10 8-6 10-5 10-4z" fill="#F2A59D"/>
<path transform="translate(665,296)" d="m0 0 6 2 12 7 11 7 16 9 10 5 13 4h13l17-3 12-6 7-9 1 2-6 12-2 11 21-2 27-6 3 1-16 8-9 4-16 4h-34l-18-4-12-4-12-5-15-8-15-11-9-7-1-1v9l4 13 9 15 2 4 4 2 13 11-2 1-26-3-5-1-15-1 3 12 6 11 2 5h2l7 9 14 11 16 8 11 4-4 2-4 5-2 3-19-9-9-6-5-5-5-3-7-7-9-13-5-9-3-10v-9l4-6 1-1h19l8 2-8-13-1-5 4 2-1-3 1-3-1-6-1-3-2-1 2-7-3 1-4-3v-9l1-2z" fill="#551C5D"/>
<path transform="translate(1411,1072)" d="m0 0h6l-3 2-27 9-25 5-22 2-68 3-48 4-37 5-30 6-19 5-2-1-1-8-2-6 30-7 33-6 35-4 27-2 26-1 51-1 35-2 23-2z" fill="#511A5A"/>
<path transform="translate(354,460)" d="m0 0 4 4 4 7 6 5 5 5 1 3h3l4 4 11 4 7 4 21 7 24 4 9 1v2l-20 9-7 5h-3v2l-12 8-13 10-6 4-4-1-16-16-10-15-9-19-3-10v-16z" fill="#D354B2"/>
<path transform="translate(1111,344)" d="m0 0h4l9 11 10 11 1 6 9 21 1 10-5 17-11 23-6 8h-9l-8-4-7-7-7-11-2 4v-15l7-9 9-14 4-9 2-9v-22z" fill="#9440B6"/>
<path transform="translate(667,512)" d="m0 0h4l-2 5-8 3-2 3h-5l-4 1h-4l-1 4-5 2-8 5-12 6-3-1-1 2-3 1h-13l-5 4-9 2v2l-11 3h-5l-1 1-11 2-10 2 3-3-13 6h-34l-7 1-7 2-18-1h-7l-9 2-4 2-2 6 2 1h-3l-2-3-5 1-10-6-3-3 2-4 18-9 20 1h28l35-3 37-6 30-7 30-9 27-10z" fill="#F7C6B8"/>
<path transform="translate(652,392)" d="m0 0h5l11 12 5 3 1 3 5 2 8 5 17 8-5 6-14 10-11 7-1-2-6-2-15-8-13-9-12-12-4-7v-6l4-4 9-3z" fill="#D254B1"/>
<path transform="translate(413,662)" d="m0 0 2 3 10 42 2 8 5 13 4 6-5 1-7-2 4 10 7 12 8 8 8 4 10 1-4 3 2 3-22 33-10 14-8 10-4 3v-11l5-49 1-18v-11l-2-27-6-44z" fill="#F1BCB5"/>
<path transform="translate(676,86)" d="m0 0h12l-3 2-18 6-35 13-34 16-23 13-22 14-18 13-21 16-11 9-13 11-11 9-13 11-22 18-10 9-5 6-3 6-2-2v-8l3-3 7-6 5-5 3-5 9-7 10-7 9-5 1-3 6-5 3-6 5-4v2l6-4 6-8 8-4 1-3 11-8 26-16 3-1 2-4 5-3 3 1v-2l5-2 4-7v-8l1-3 21-10 15-6 23-8 26-7z" fill="#F3B2EA"/>
<path transform="translate(994,832)" d="m0 0h10l12 6 6 9 2 6-1 14-7 10-8 6-9 3h-8l-10-4-7-7-3-5v-17l7-11 9-7z" fill="#2B1230"/>
<path transform="translate(406,601)" d="m0 0 14 7 5 3 9 6 11 6 16 8 11 6 3 9 3 14-1 4-1-2v9l1 12h-2l-9-11-9-10-12-10-16-10-10-4-9-2-1-1-3-27z" fill="#D77191"/>
<path transform="translate(1047,643)" d="m0 0h8l8 4 5 5 4 5 5 12 2 6v6l-3-3-9-16-8-7-3-1h-8l-10 5-8 8-7 10-9 16-8 21-3 13v8l5 25v11l-4 10-7 9-10 10-10 6-2 1 2-5 16-23 4-9v-12l-4-14-1-5v-16l5-19 7-15 8-15 8-11 9-10 8-6z" fill="#89296A"/>
<path transform="translate(167,281)" d="m0 0 3 1-5 4-5 5-3 10v33l6 23 10 25 10 18 8 11 8 10 4 6-2 1h-9l-12-3-9-6-7-6-9-11-7-13-1-4-1-26 2-10 4-10 2-3v-36l3-9 7-8z" fill="#F5B4EB"/>
<path transform="translate(1e3 647)" d="m0 0 3 3-1 12-2 13v12l1 10-3 7-5 19v16l4 17 1 2v12l-6 12-12 17-5 8h-2l-2 5-4-2v-10h3v-6l5-8 2-6 1-5 2-3v-8l1-2h-3l1-3v2l2-2 1-12 1-13-3-8v-9l6-30 7-24 5-14z" fill="#F7C4B8"/>
<path transform="translate(624,638)" d="m0 0h35l17 3 14 2 26 10 17 9 9 7 6 9v4h2l1 6v11h-1l-2-11-6-8-8-7-16-8-15-6-9-2-11-3-18-2h-28l-12 2-9 4-8 6-7 8-6 10-2 3 1-9 6-24 5-5 8-6z" fill="#D77192"/>
<path transform="translate(667,618)" d="m0 0h6l-4 1 1 7h-2l1 5 13 2-1 2 10 2 8 1 3 3 9 1 2 2 7 1 2-2h6l4 3 5 1v6l6 9 9 11-1 5h-2l-1 4-3-8-6-7-13-8-17-8-19-7-18-3-13-2h-35l-13 4-6 5h-2v2l-4-1-1-4-3-4 1-3 5-1 1-2 4-3v-3l29-6z" fill="#F4BEB5"/>
<path transform="translate(556,584)" d="m0 0h2l1 3 4-3v16l4 10 6 8 8 7 9 5 6 1 8-1-1 2-11 1v2l-8 3-16 2v2h-12v-2l-6-1-8-6-6-8-2-6v-17l3-8 3-4 9-2z" fill="#CF7193"/>
<path transform="translate(1498,809)" d="m0 0h1l2 6 9 14 5 10 4 17 1 9-6 19-7 14-7 8-11 7-4 1 1-9 4-24 6-50z" fill="#F5B4EB"/>
<path transform="translate(721,251)" d="m0 0 2 1-3 16v21l3 14 5 12 5 8 5 7h-7l-13-4-23-12-10-7 1-8 4-10 9-14 12-13 9-10z" fill="#EA59C2"/>
<path transform="translate(473,992)" d="m0 0 7 1 5 3 10 19 11 25 11 27 10 23 12 23 1 8-4-1-8-9-9-14-12-21-15-29-9-19-8-16-6-13 1-4z" fill="#F0E3E6"/>
<path transform="translate(1024,247)" d="m0 0 6 2 14 8 14 11 12 11 8 7 9 11 11 15 15 26 4 6v2h2l1 4-5-4v-2h-4l2 11v22l-3 12-7 13-7 9-5 7v15l5 26 4 16 5 12 12 21 6 8-3 1-1 7h-1l-1-11-13-22-8-16-6-16-5-25-1-11-8 6h-2l-1 3-11 8-13 10-5 4-2-1 13-11 9-7 13-11 7-8 10-11 8-13 5-14 1-6v-15l-3-15-8-18-8-15-12-16-7-7-5-6-8-6-2-1 3 5 5 10 1 6-4 2-3-9-6-12-12-13-13-11z" fill="#783B82"/>
<path transform="translate(1133,1460)" d="m0 0 29 1 31 4 23 5 33 11 30 13 26 14 2 2-5-1-50-17-25-8-14-3-30-3-16-1h-22l8 16 1 4-3-3-13-25-5-7z" fill="#763B80"/>
<path transform="translate(737,469)" d="m0 0 24 8 15 3 16 2h43l13-2 5-1-4 4-17 11-15 8-5 3h-16l-21-5-18-8-12-9-7-10z" fill="#D97292"/>
<path transform="translate(693,120)" d="m0 0 2 2 2 12 4 10 9 15 8 10 11 11 13 10 3 2v2l6 2 16 8 18 7 28 7 26 5 12 2 11 1 71 1 28 3 19 4 21 7-4 1-25-6-29-4-19-1-67-1-31-4-31-6-30-10-16-8-15-10-11-9-8-8-10-13-6-10-5-13-2-8v-9z" fill="#7A3A85"/>
<path transform="translate(661,674)" d="m0 0 13 1 22 5 21 7 10 5 7 6 1 2v17h-1v-5l-5-2-13-5-10-4-25-7-4-1h-11l-1 17h-1l-2-25-1-4z" fill="#F3BEB8"/>
<path transform="translate(393,546)" d="m0 0 2 1-3 3-4 15-1 7-9 7-10 9-11 7-15 7-12 3-8 1h-20v-1h7l1-8-7-2v-1l24-1 11-3 14-7 3-1v-2l6-4 13-12 6-5 5-6z" fill="#541C5D"/>
<path transform="translate(1059,706)" d="m0 0 3 4 4 9 3 7 1 5v22l-4 16-7 14-9 10-13 6-13 4-15 4-16 5-9 4-14 5-4-1 1-3h2l1-4 14-7 21-8 33-9 9-5 7-7 7-14 3-11v-23l-3-14z" fill="#8C2C6D"/>
<path transform="translate(607,972)" d="m0 0h14l3 3v5l-7 4-12 3-31 2-18 2-10 1h-61l-19-3-1 2-2-5h62l11-1 24-1 21-4 20-6z" fill="#8C2C6D"/>
<path transform="translate(552,1491)" d="m0 0 2 3 12 28 10 21 10 16 4 5 4-2 1 13 3 2v4l-9-3-10-7-9-12-12-23-13-31 3-1 2-6z" fill="#511A5A"/>
<path transform="translate(794,1060)" d="m0 0 1 4-1 3h-2l-2 5-1 3-32 17-21 10-33 13-27 9-10 2 2-5 5-1h3l1-2 4 1-1-4 3-3 12-2 3-3 4-2 6-1 13-5 11-2 8-6 2-1 2-5 7-3 7-2 5-1 4-3 10-3 8-8 8-4z" fill="#F7C6B8"/>
<path transform="translate(353,457)" d="m0 0 7 6 1 3 5 2 3 2v2l4 1 14 8 14 6 9 3 22 5 21 3 53 1v1l-37 2-10 6-6 2v-2h-9l-24-4-16-5-16-8-8-3-3-2v-2h-3l-5-5-5-6-3-2-4-7-4-5z" fill="#581E60"/>
<path transform="translate(478,709)" d="m0 0 4 6h4l-1 16-6 21-9 19h-2l-2 6-4 8-10 17-14 22-3 3-5-4-4-2 13-18 19-29-3-3 6-3 8-13 5-13 3-14 1-12z" fill="#8B3574"/>
<path transform="translate(994,841)" d="m0 0h12l8 7 2 4v10l-3 6-4 5-8 4h-10l-7-4-4-6-1-9 4-1v-8z" fill="#763C80"/>
<path transform="translate(652,354)" d="m0 0h6v1h-5l2 10 7 14 2 5h2l7 9 14 11 16 8 11 4-4 2-4 5-2 3-19-9-9-6-5-5-5-3-7-7-9-13-5-9-1-4v-7z" fill="#561C5E"/>
<path transform="translate(1061,675)" d="m0 0 8 1 6 4 4 6 2 7h2v-2l9-3 4-2h6l2 3-2 10-2-2-4-1-3-1-5 3-2 2-2-3-7 3-3 11-3 5h-2v8h-1v-6l-4-1-3-7-6-10-5-5 1-8 6-9z" fill="#F7C5B8"/>
<path transform="translate(430,749)" d="m0 0 3 3 7 8 5 4 6 3 10 1-4 3 2 3-22 33-10 14h-1v-13l6-49-1-6z" fill="#F3A69D"/>
<path transform="translate(468,771)" d="m0 0 2 8-2 8 2 4-10 15-9 14-8 12-17 25-6 9-1 5-7-1-1-1v-8l16-23 14-20 14-23 8-13z" fill="#F5C1B7"/>
<path transform="translate(743,717)" d="m0 0 2 1-1 8-8 17-6 11-9 11-7 7-13 9-13 6-12 2h-27l-17-4-12-6 2-1 16 3 6 1h22l15-2 14-5 11-7 10-9 7-8 5-8 1-4 3-3z" fill="#D77292"/>
<path transform="translate(951,894)" d="m0 0 4 2 4 4-3 12-9 24-11 24-10 17-9 12-9 10-5 4-3 4-2-1 10-13 9-15 8-16 6-13 6-15 2-8 4-9 4-11z" fill="#8A2A6B"/>
<path transform="translate(594,1534)" d="m0 0 5 1v2h4l-1 12v10l3 9 5 5 10 1 2 3 7-1h9l3-2h4l-2 4-12 5-12 3h-12l-9-4v-5l-4-2-1-8 1-5-3 1-1-1v-15l2-11z" fill="#501A58"/>
<path transform="translate(307,285)" d="m0 0 3 1 1 1 6 1 1 2-1 2h-2v2l2 2-27 4h-28l-21-3-4-1 1-3h3v-4h41l20-3z" fill="#F3B1EA"/>
<path transform="translate(828,1068)" d="m0 0 6 1-4 3-7 4-13 5-14 6-10 4-16 6-13 5-35 11-9 3-20 6-25 5 1-2 26-8 31-12h8l11-5 14-4 9-3 7-4 8-4 8-3 3-2 10-2 11-5 6-2z" fill="#CA6891"/>
<path transform="translate(961,1041)" d="m0 0h2l2 3-1 6-2 1-4 7-4 5-2 8-3 2-4 10-1 5-1 2h-2l-2 4-4 5-9 11-3 1 1-8 6-10v-8l10-18 10-19 9-5z" fill="#F7C6B8"/>
<path transform="translate(1037,798)" d="m0 0 4 1v3l9 1 1 3-2 3-12 1-6 4h-4v2l-4 1-3-3h-8l1 6 3 6-5-2-7-7-1-3h-2l-1 9-6 1 4-4h-11l-8 2-5-1 2-3 13-5 11-4 15-5 17-4z" fill="#F7C5B8"/>
<path transform="translate(408,621)" d="m0 0 13 5 19 13 12 11 7 6 5 7h3v2h6l2-2 2 15v5h-2l-9-11-9-10-12-10-16-10-10-4-9-2-1-1z" fill="#C56691"/>
<path transform="translate(555,585)" d="m0 0 2 1v15l4 11 6 9 9 8 6 4v2l-3 1h-9l-9-4-5-4-6-10-2-5-1-6v-17l5-4z" fill="#26102A"/>
<path transform="translate(486,728)" d="m0 0h6l1 5-1 14-6 15-8 15-8 12-3-2 2-10-1-2 4-10 7-16 5-18z" fill="#F2E6E7"/>
<path transform="translate(450,936)" d="m0 0 4 2 13 27 7 16-1 4-7-1v-2l-5-1-7-13-4-10-4-9-3-8 1-3h5z" fill="#F0E3E6"/>
<path transform="translate(669,680)" d="m0 0 9 1 6 2 10 3 8 4 9 2 9 9-2 4-9-3-24-7-8-2h-11l-1 17h-1l-1-24 4-2z" fill="#F7BDE4"/>
<path transform="translate(139,482)" d="m0 0 5 3v2l10 3 16 6 8 2h25l22-4 7-2h8l-3 3-16 6-17 4-8 1h-14l-16-4-16-7-5-3v-2h-2l-4-6z" fill="#E095D3"/>
<path transform="translate(1131,1460)" d="m0 0h2l8 13 12 23 10 19 14 26 8 15 8 17 10 19 4 8h-3l-6-11-12-23-13-23-12-22-16-29-14-27z" fill="#521B5B"/>
<path transform="translate(686,126)" d="m0 0h2l-1 5-4 15v27l4 14 5 10 11 12 12 9-3 1-14-8-10-9-6-9-5-11-2-11v-14l4-16z" fill="#7A3B85"/>
<path transform="translate(832,223)" d="m0 0 13 1 17 2 71 1 28 3 19 4 21 7-4 1-25-6-29-4-19-1-67-1-31-4-5-1v-1h10 1z" fill="#7C3A86"/>
<path transform="translate(1e3 647)" d="m0 0 3 3-1 12-2 13v12l1 10-4-1-3-4-7 1 1 14-2 9-5 1 1-11 6-27 10-30z" fill="#F1BDAE"/>
<path transform="translate(148,496)" d="m0 0h2l7 8 4 2 7 7 3 1 4 4 3 1 4 4 10 4 8 4 21 5h21l12-3 16-6 11-7 2 1-10 7-12 6-17 5-9 1h-13l-14-2-15-4v-2l-9-3-11-5v-2h-5-3l-4-4v-2h-2l-5-7 2-1-3-5-5-6z" fill="#892A70"/>
<path transform="translate(406,499)" d="m0 0 20 5 27 4v2l-20 9-7 5h-3v2l-12 8-13 10-1-4 5-6 10-7 10-10v-8l-1-3-7-1-4-3-4-2z" fill="#923FB0"/>
<path transform="translate(908,962)" d="m0 0h3l2 4-1 4-11 14-12 14-11 12-7 7-2-4-1-5 8-11 4-5 5-2v-2l5-4 4-4 3-1 1 2 1-2h3l2-8h-2l1-4z" fill="#F7C5B7"/>
<path transform="translate(276,349)" d="m0 0 3 1-9 3-9 2h-18l-2-1 4 4 16 8 17 6 13 2h15l28-4 7 1v2l-12 6-7 2h-5l4-2-11 1h-10l-20-4-22-8-9-4-8-5-8-8 7 1h24z" fill="#7E3C8D"/>
<path transform="translate(685,347)" d="m0 0 8 6 8 7-2 1-26-3-5-1-15-1h-2l-6 7-2 4-1-3v-9l4-6 1-1h19l8 2 1-2 2 3 3 1 1-3h4z" fill="#783A81"/>
<path transform="translate(556,584)" d="m0 0h2l1 3 4-3v16l4 10 6 8 8 7 9 5 6 1 8-1-1 2-11 1v2l-9 2h-13v-1l12-1-4-4-8-6-8-9-5-11-1-4z" fill="#CA6B92"/>
<path transform="translate(413,662)" d="m0 0 2 3 10 42 2 8 5 13 4 6-5 1-7-2-1 2-3-8-4-31-3-22z" fill="#EAD7DF"/>
<path transform="translate(1449,1145)" d="m0 0 16 2 21 7 2 2 1 6v8l-15-8-27-12v-4z" fill="#521B5B"/>
<path transform="translate(540,591)" d="m0 0h1l1 23 4 11 9 10 9 5v1h-8l-9-4-8-7-4-8-1-3v-17l3-8z" fill="#29102D"/>
<path transform="translate(549,340)" d="m0 0 4 1 5 4-1 8-5 12-5 6h-6l-3-3 1-8 5-12z" fill="#F3B2EA"/>
<path transform="translate(594,1563)" d="m0 0 3 3 3 11 10 1 2 1 1-4h7l2 2 7-1h9l3-2h4l-2 4-12 5-12 3h-12l-9-4v-5l-4-2-1-8z" fill="#2A112F"/>
<path transform="translate(860,1058)" d="m0 0 3 3-4 5-16 11-10 7-10 6h-2v2l-7 4-10 5-6 5-5 1-1-3 22-14 33-22z" fill="#C76690"/>
<path transform="translate(456,791)" d="m0 0 1 2-8 14-13 20-3-1-3-3-4-2 13-18 7-11 3 1-1 5 5-2z" fill="#571D5D"/>
<path transform="translate(870,1212)" d="m0 0 5 2-6 7-8 6-2 1-3 5-9 6-6 3h-6l2-1 1-4 4-5 5-5 7-5 8-4 5-3z" fill="#F8C7B8"/>
<path transform="translate(851,479)" d="m0 0 2 1-13 9-17 10-4 1-2-1 1-11 6-3-19-1v-1l30-1 13-2z" fill="#C4648F"/>
<path transform="translate(437,925)" d="m0 0 11 6 9 4 14 4 12 1-3 2-12 4-5 4h-2l-1 2-8-15-2-1-1 3h-5l-2 1-5-12z" fill="#F1B9B3"/>
<path transform="translate(715,429)" d="m0 0 15 2-5 5-4 5-2 9h-1l-1-5-7 1-7 2-4 2-6-1 4-4 10-8z" fill="#C56590"/>
<path transform="translate(1024,247)" d="m0 0 6 2 14 8 5 7 8 7 2 3-4-1 3 5 5 10 1 6-4 2-3-9-6-12-12-13-13-11z" fill="#84398E"/>
<path transform="translate(233,352)" d="m0 0 7 4 1 3 5 2 7 4 24 9 16 4 7 1h10l14-1-3 2-4 1h-25l-20-4-21-8-16-9-8-5 1-2z" fill="#521B5B"/>
<path transform="translate(1058,928)" d="m0 0 2 2 4 19 4 21 2 8-5-2-3-2-1-6-2-7-1-8-1-3-5-2 2-1 1-9z" fill="#C86891"/>
<path transform="translate(624,638)" d="m0 0h35l17 3 15 4 9 3-1 2-29-6-15-2h-25l-15 3-10 3 5-5 9-4z" fill="#89286A"/>
<path transform="translate(620,778)" d="m0 0 24 4h22l15-2 9-1-4 3-7 3-5 2-5 1h-26l-16-5-7-4z" fill="#D57394"/>
<path transform="translate(489,900)" d="m0 0h20l6 3v2l-21 2-13 4-8 3h-5l1-4 9-6z" fill="#89286A"/>
<path transform="translate(536,985)" d="m0 0h16v1l-35 3-18 1 47 1v1h-61l-19-3-1 2-2-5h62z" fill="#BE6897"/>
<path transform="translate(880,510)" d="m0 0h2l-2 20h-1v-8h-14l-15-3-10-3v-1l25-2z" fill="#D67693"/>
<path transform="translate(938,106)" d="m0 0 4 2 12 12 4 2 10 13 2 4-9-6-14-9-16-9 3-2h2z" fill="#EDDDE4"/>
<path transform="translate(464,766)" d="m0 0 2 4 1-2h2l-1 5-6 12-4 7h-2l-4 6h-4v-5l-1-2 11-17-3-3z" fill="#882769"/>
<path transform="translate(479,512)" d="m0 0h7v1l-7 2-3 1-2-1v2h-3v2l-8 4h-3v2l-17 9-6 1v2l-3 1-5 5-4-1-1-2 15-10 16-9 13-6z" fill="#C66690"/>
<path transform="translate(993,951)" d="m0 0 4 1 9 7 7 4-4 4-4-1-5-2-4 4h-2l-1 4-4 1-3-2 3-9z" fill="#F7C6B8"/>
<path transform="translate(488,264)" d="m0 0 9 5 12 6 15 5 15 3 8 1h45l15-1v1l-23 3-9 1h-23l-25-4-12-3-16-8-11-7z" fill="#8B2D7C"/>
<path transform="translate(823,329)" d="m0 0 3 1-16 8-9 4-16 4h-7v-1l6-1v-5l-10-1v-6h1v5l21-2z" fill="#8A2B74"/>
<path transform="translate(1312,1145)" d="m0 0h17v1l-40 4-24 3h-8l1-4-7-1v-1l14-1z" fill="#763B80"/>
<path transform="translate(930,929)" d="m0 0 4 2 1 4-6 9-4-1 1-2-4 3-2 10-1 2-4 1-2-4 3-10 4-7 2-4 6-2 2 1z" fill="#F7C6B8"/>
<path transform="translate(671,324)" d="m0 0 2 4 9 15 3 4v2l-4 1-1 2-4-1-1-3-3-1-6-10-1-5 4 2-1-3z" fill="#5A1E61"/>
<path transform="translate(353,457)" d="m0 0 7 6 1 3 5 2 3 2v2l4 1 14 8 3 3-3 2-4 1v2l-5-2-1-3h-3l-5-5-5-6-3-2-4-7-4-5z" fill="#892B72"/>
<path transform="translate(1012,879)" d="m0 0 7 2 1 3 3 1-13 6-13 4h-15v-1h10l1-5 9-2 1-3 8-4z" fill="#E69B9D"/>
<path transform="translate(979,722)" d="m0 0 2 4 3 8-1 19-1 8h-3v-2h-3l-2-3 1-10z" fill="#F0BEAF"/>
<path transform="translate(997,789)" d="m0 0 5 5 7 3-4 2-28 11-6 3 2-6 11-6 10-9z" fill="#CB6A92"/>
<path transform="translate(449,551)" d="m0 0 20 1h43l-4 4h-28l-1-1-10 1h-24l-2-2z" fill="#F7C4AF"/>
<path transform="translate(980,881)" d="m0 0 11 4h14l-3 3-9 2-1 4h-15l-7-2 4-1-1-3 3-2v-2z" fill="#F2BDB5"/>
<path transform="translate(610,1471)" d="m0 0h4l1 4 3 1 1 2-1 9-3 6-4 3 2 6-1 4-4 1-1-3-2-2 3-5 1-12h2v-6l-1-2z" fill="#26102A"/>
<path transform="translate(1091,451)" d="m0 0 4 4 5 20 5 12 12 21 6 8-3 1-1 7h-1l-1-11-13-22-8-16-6-16v-7z" fill="#892C76"/>
<path transform="translate(864,480)" d="m0 0m-1 1m-1 1m-2 1 2 1-8 9 1 8h3v3h-28l4-3 14-8 10-8z" fill="#CF53B1"/>
<path transform="translate(481,867)" d="m0 0h7l6 3 1 5-5 5h-10l-4-5-1-4z" fill="#F8C7B8"/>
<path transform="translate(947,895)" d="m0 0 3 1-1 7-3 10-4 9-8-2v-8l4-1 2-5 3-5 1-4z" fill="#F7C6B9"/>
<path transform="translate(998,825)" d="m0 0 10 1 2 1-1 3h-2l-1 3h-12l-10 5-6 5-2 2v-5l7-8h2v-2z" fill="#F5C2B7"/>
<path transform="translate(232,492)" d="m0 0h8l-3 3-16 6-17 4-8 1h-14l-1-2 15-1 17-4 3-1v-2z" fill="#F1AEE8"/>
<path transform="translate(935,228)" d="m0 0h9l23 3 23 6 11 4-4 1-25-6-29-4-19-1v-1l11-1z" fill="#7B3A85"/>
<path transform="translate(959,899)" d="m0 0h2v2l10 3 8 3 17 1v1l-12 1-2 1-3-1v2l-14-1-4 1-4-4z" fill="#C36490"/>
<path transform="translate(1090,416)" d="m0 0 1 2v15l3 17v5l-3-3-2 3-4-21-1-13z" fill="#873A95"/>
<path transform="translate(467,911)" d="m0 0 1 3 9-1-3 2-4 2 8 5 3 6v2l-4 1-19-10 2-1 2-4 4-1z" fill="#CA6891"/>
<path transform="translate(460,272)" d="m0 0h5l7 8 1 3-8 7-2-1-1-4h-3v-2l-3-1 2-3-2-2-2-3z" fill="#F3B1EA"/>
<path transform="translate(332,370)" d="m0 0 6 1-2 2-13 4-5 1h-17l-12-1-11-3v-1l13 1h15z" fill="#9541B7"/>
<path transform="translate(729,1418)" d="m0 0 2 1-22 22-8 7-14 14v-3l11-13 7-9 6-7 2 1 5-3 10-9z" fill="#783B82"/>
<path transform="translate(1063,774)" d="m0 0h2l3 11-5 3-6 5-2 7h-3l-1-4h-7l4-3 8-7z" fill="#F6C1B5"/>
<path transform="translate(548,1365)" d="m0 0h1l2 37v10h-2l-8-37v-5l2 3 2 5 2 1z" fill="#521B5B"/>
<path transform="translate(622,974)" d="m0 0 2 1v5l-7 4-8 2h-11v-3h3l1-5 3-2 10 2 5-1z" fill="#551C5B"/>
<path transform="translate(1192,484)" d="m0 0 3 3 7 10 2 8 9 15v5l-4-5-10-14-6-12z" fill="#601E60"/>
<path transform="translate(661,674)" d="m0 0 13 1 15 3v1l-6 2-2 2-11-2-4 4-3 1-2-5z" fill="#E297D5"/>
<path transform="translate(307,285)" d="m0 0 3 1-2 2-8 3-2 2-6-1-1 2h-8l-6 1-3-2v-2h-17v-1l25-1 20-3z" fill="#E2A2D1"/>
<path transform="translate(997,526)" d="m0 0 2 3 4 16 6 14 2 4-2 3-4 1-5-14-3-21z" fill="#612165"/>
<path transform="translate(1188,423)" d="m0 0 5 5 9 14 5 11 3 9v3l2 1h-2l-1 8-1 19h-1l-1-27-4-16-8-16-6-9z" fill="#8A2A71"/>
<path transform="translate(473,637)" d="m0 0 5 1 3 7 3 14-1 4-3 1-2-1-5-21z" fill="#F7C5B8"/>
<path transform="translate(714,1110)" d="m0 0h2l1 3-1 2-10 3-13 4-25 5 1-2 26-8z" fill="#D57092"/>
<path transform="translate(430,749)" d="m0 0 3 3 7 8 5 4 6 3 10 1-4 3 2 3-3 3v-2l-10-4-8-6-6-10z" fill="#D06C92"/>
<path transform="translate(660,309)" d="m0 0 5 2h2l-1 7 4 7v5l-1 4-5-2-4-12z" fill="#773B81"/>
<path transform="translate(413,662)" d="m0 0 2 3 7 29v5h-3l-2 3-4-28z" fill="#D99DAB"/>
<path transform="translate(371,342)" d="m0 0 3 1 4 5v8l5 5 2 4-1 4-4 2-5-10-4-15z" fill="#F4B2EA"/>
<path transform="translate(435,568)" d="m0 0 8 5 1 7 12 29 2 5-1 3-16-33-5-12z" fill="#9B5594"/>
<path transform="translate(1187,342)" d="m0 0h5l2 6 6 3 2 4-20-6-11-1 2-2z" fill="#581D60"/>
<path transform="translate(832,1248)" d="m0 0h6v3l-14 10-5 4-3-1 5-9 5-5z" fill="#EFA29D"/>
<path transform="translate(857,1019)" d="m0 0 6 2-1 4-11 9-9 7-3-1 1-4 6-5h4l1-3h3v-5l2-1-2-2z" fill="#F7C5B7"/>
<path transform="translate(267,330)" d="m0 0 16 2-3 3-11 4-8 2h-17v-1l18-1 1-5z" fill="#E3C7DA"/>
<path transform="translate(167,521)" d="m0 0 6 1v2l9 3 11 5-4 1-6-2-1 6-4-2-9-8-2-3z" fill="#C34EAF"/>
<path transform="translate(338,371)" d="m0 0h3v2l-12 6-7 2h-5l4-2-11 1h-10l-20-4v-1l9 1 12 1h17l12-3z" fill="#7B3A85"/>
<path transform="translate(602,106)" d="m0 0 2 1-4 2-2 7-3-1-1 3-6 3h-5l-2-5 4-3z" fill="#F0B3E0"/>
<path transform="translate(748,1138)" d="m0 0 2 1-4 4-6 11-3 3h-3l-2 6-8 5-2 1 2-4 7-9 12-13z" fill="#C2618C"/>
<path transform="translate(450,673)" d="m0 0 7 6 5 6-2 4-7-1v22h-1z" fill="#E3C2D7"/>
<path transform="translate(408,621)" d="m0 0 13 5 19 13 8 7h-3l-10-7-16-9-10-5-1 3z" fill="#872769"/>
<path transform="translate(666,465)" d="m0 0 3 1-4 6-6 3-7 4h-12l1-2 9-4z" fill="#C66690"/>
<path transform="translate(1052,968)" d="m0 0 5 1 8 6-2 7h-3l-2-3h-3l-3-4-3 1-2-3z" fill="#F7C6B8"/>
<path transform="translate(614,686)" d="m0 0h1l2 20v7h-1v-5l-5-1-3-3-2 1 2-6z" fill="#ECD9E1"/>
<path transform="translate(223,282)" d="m0 0 18 5 6 1v1h-6v4l-3 1-1 2 4 1-7-1-7-8-4-4z" fill="#D88CC8"/>
<path transform="translate(687,418)" d="m0 0 5 1 12 6-5 6-7 5-2-4v-5l1-1v-5z" fill="#923FAF"/>
<path transform="translate(418,698)" d="m0 0 5 1 3 16-2 4-4 1-2-10z" fill="#E7B0B3"/>
<path transform="translate(945,89)" d="m0 0 13 2 15 5-3 1-10 1-4 3-11-11z" fill="#80398A"/>
<path transform="translate(676,86)" d="m0 0h12l-3 2-18 6-7 2-1-4-3-2z" fill="#E097D4"/>
<path transform="translate(790,68)" d="m0 0 14 1 10 2 7 2 13 1 5 3 4 2-2 1-27-6-11-2-15-2z" fill="#EDD5DD"/>
<path transform="translate(925,74)" d="m0 0h32l10 4v1l-10-1h-37l2-3z" fill="#F1E2E6"/>
<path transform="translate(1020,411)" d="m0 0 1 3-7 28-5 27h-1l1-15 3-17 6-21z" fill="#813B8E"/>
<path transform="translate(774,210)" d="m0 0 16 4 30 7 12 1v2l10 1v1l-11-1-15-1-2-2-22-5-17-5z" fill="#5A2163"/>
<path transform="translate(461,981)" d="m0 0 5 1v2h7l2-3v2l9 1 5 1 36 1v1h-45l-17-1z" fill="#F3B4AA"/>
<path transform="translate(742,481)" d="m0 0h3l5 5 11 7 7 3v2l-5 1-10-4v-2l-4-1-2-4-3-3v-2h-2z" fill="#F7C4B8"/>
<path transform="translate(480,714)" d="m0 0 6 1-1 16-3 7-2 6-1-4 1-9-1-2z" fill="#582060"/>
<path transform="translate(497,552)" d="m0 0h15l-4 4h-28l-7-2v-1z" fill="#F7C7B1"/>
<path transform="translate(985,695)" d="m0 0h2l1 12-2 9-5 1 1-11 2-10z" fill="#EEBAAE"/>
<path transform="translate(1238,341)" d="m0 0 4 1 8 8 4 6-9-3-8-3z" fill="#84398E"/>
<path transform="translate(1084,422)" d="m0 0h1v10l-11 3-7 3v-3l6-4 3-3z" fill="#CF53B1"/>
<path transform="translate(605,986)" d="m0 0h5l-2 1 1 3-11 2-5 1-5-1 1-2-3-2 3-1z" fill="#F7C5B6"/>
<path transform="translate(167,281)" d="m0 0 3 1-5 4-5 5-3 10-1 26-2-2v-25l3-9 7-8z" fill="#F4D7E9"/>
<path transform="translate(594,1534)" d="m0 0 5 1v2h4l-1 7-2 1h-8v-9z" fill="#2A112F"/>
<path transform="translate(657,530)" d="m0 0 4 1 3 9-1 2h-2l-1-2h-9l-1-3 5-5z" fill="#F8C7B9"/>
<path transform="translate(685,779)" d="m0 0h5l-4 3-14 4-8 1h-14l-1-2 22-2h6v-2z" fill="#89286A"/>
<path transform="translate(486,706)" d="m0 0h1v7h2l3 10v5h-6l-1 2v-12z" fill="#F0B7B3"/>
<path transform="translate(517,509)" d="m0 0h6l-1 4-6 2h-6l-4-2-17-1v-1z" fill="#C86893"/>
<path transform="translate(872,1194)" d="m0 0 7 6 1 2-5 3-3 3h-5l-1-2 3-3 1-8z" fill="#F8C7B9"/>
<path transform="translate(888,1173)" d="m0 0 2 1-6 8v5l-7 3-2-1 4-8-2-1 6-4z" fill="#F8C7B8"/>
<path transform="translate(521,1095)" d="m0 0 4 1 4 6 6 8v3l-3-1-4-5h-3l-5-8z" fill="#F2C1BA"/>
<path transform="translate(560,633)" d="m0 0 7 3h20l-3 2-16 2v2h-12v-1l6-1-4-4z" fill="#E0909A"/>
<path transform="translate(762,583)" d="m0 0 3 1 3 6 4 1h2l2 2-1 4-3 2-8-8-6-4v-2z" fill="#EFBAB4"/>
<path transform="translate(1078,423)" d="m0 0h2l-2 5-4 1-1 3-11 8-13 10-5 4-2-1 13-11 9-7z" fill="#541C58"/>
<path transform="translate(937,930)" d="m0 0 1 4-3 8h-2l-7 12-9 11v-3l10-15 8-14z" fill="#CF6C92"/>
<path transform="translate(148,496)" d="m0 0h2l7 8 4 2 7 11-5-1-5-3-4-4 2-1-3-5-5-6z" fill="#5F2162"/>
<path transform="translate(1122,221)" d="m0 0 2 2h12l4-1 8 1v1l-22 5-4 1z" fill="#E2C9D6"/>
<path transform="translate(957,122)" d="m0 0 5 5 7 9v3l-12-9-8-5 3-2z" fill="#E0A9B6"/>
<path transform="translate(265,272)" d="m0 0h7l11 2v-2l4 1-1 2-4 1h-28l4-2z" fill="#E4C7D4"/>
<path transform="translate(539,115)" d="m0 0h8l-4 3-18 11-1-2-2-1 3-3 5-2z" fill="#E7D1DC"/>
<path transform="translate(774,332)" d="m0 0h1v5l18-1v6l-8 4h-7v-1l6-1v-5l-10-1z" fill="#7E3A88"/>
<path transform="translate(967,79)" d="m0 0 14 1 4 2v2l15 3 4 3v2l-7-2-8-3-18-6z" fill="#E0BFD9"/>
<path transform="translate(276,349)" d="m0 0 3 1-9 3-9 2h-18l-2-1 1 3-5-2-4-4 7 1h24z" fill="#7B3282"/>
<path transform="translate(345,285)" d="m0 0 7 1-3 2-23 6-7 1 3-3 8-3h5l7-3z" fill="#F2B0E9"/>
<path transform="translate(773,210)" d="m0 0 19 6 22 5 1 2-11-1-19-5-15-5z" fill="#7C3A86"/>
<path transform="translate(685,347)" d="m0 0 8 6 8 7-2 1-15-2 3-1v-8h-2z" fill="#8A2D79"/>
<path transform="translate(1167,232)" d="m0 0 13 1 2 1-2 4-4 3-3-2v-4l-4-1-21 1v-1z" fill="#81398B"/>
<path transform="translate(1016,902)" d="m0 0 2 1 2 9-7 1-5-3 2-5z" fill="#C76792"/>
<path transform="translate(674,649)" d="m0 0 8 1v2l8-2 2 1v2l3 1 3 2 2 2-6-1-11-3-18-2v-1z" fill="#C0618E"/>
<path transform="translate(453,934)" d="m0 0 10 3 8 2 12 1-3 2-3 1h-8l-11-4z" fill="#C06692"/>
<path transform="translate(472,697)" d="m0 0 4 5 2 4 1 13-2-4h-2l-4-9v-7z" fill="#EDDAE4"/>
<path transform="translate(1083,531)" d="m0 0h1v19l-1-4h-7l3-9z" fill="#5C1E62"/>
<path transform="translate(952,894)" d="m0 0 6 4 1 4-3 10-3 1-1-7z" fill="#571C5C"/>
<path transform="translate(1264,414)" d="m0 0h14l-3 9h-3l-8-8z" fill="#E6CDDC"/>
<path transform="translate(681,642)" d="m0 0 9 1 26 10 3 3-6-1-14-4 1-3-9-2-10-3z" fill="#D06C92"/>
<path transform="translate(406,601)" d="m0 0 12 6-4 3h-2v2h-4l-1 4z" fill="#C56692"/>
<path transform="translate(993,951)" d="m0 0 4 1 9 7v1l-8 1-6-2z" fill="#F7C6B1"/>
<path transform="translate(598,565)" d="m0 0 7 3 2 1v3l-12 2-2-2v-3l5-2z" fill="#EFBAB3"/>
<path transform="translate(968,232)" d="m0 0 8 1 20 6 5 2-4 1-25-6-6-1z" fill="#7F3A89"/>
<path transform="translate(587,1133)" d="m0 0h15v2h2v2l-17 1-4-2z" fill="#F8C7B9"/>
<path transform="translate(1290,993)" d="m0 0h35l1 3 7 1-4 1-26-3-13-1z" fill="#D6AECA"/>
<path transform="translate(645,784)" d="m0 0h13v1l-8 1h14l15-2-1 2-9 2h-26v-2l-3-1z" fill="#C86993"/>
<path transform="translate(752,1309)" d="m0 0 5 1 1 4-9 7h-1v-11z" fill="#C76690"/>
<path transform="translate(578,116)" d="m0 0 2 1-2 2-2 7h-5l-1 2-3-1-1-5z" fill="#F0B3E1"/>
<path transform="translate(938,806)" d="m0 0h1v14h-1v-5l-4-1v5l-4 1-7 1 5-5 8-7z" fill="#F0B7B5"/>
<path transform="translate(478,709)" d="m0 0 2 3v17l-4 15-2 5-2-1 4-14 2-18z" fill="#934E8B"/>
<path transform="translate(1190,1571)" d="m0 0h2l12 23 3 6h-3l-6-11-8-15z" fill="#3A1540"/>
<path transform="translate(181,302)" d="m0 0 2 1v17l2 12-4-2-1-2v-20z" fill="#F0D6DF"/>
<path transform="translate(464,766)" d="m0 0 2 4 1-2h2l-1 5-6 12-4 4 2-6 2-4 1-6-3-1z" fill="#571D5D"/>
<path transform="translate(95,431)" d="m0 0h1l2 27 4 20-1 4-2-5-3-14-1-13z" fill="#F2E2EA"/>
<path transform="translate(476,661)" d="m0 0 3 4 3 14-6-1-1-7v-9z" fill="#6C2362"/>
<path transform="translate(941,491)" d="m0 0h1l1 16-5 1-3-1 3-9z" fill="#601F62"/>
<path transform="translate(1078,944)" d="m0 0 13 4-3 2-4 2h-3v5l-2-2-1-4z" fill="#E8CEDC"/>
<path transform="translate(683,455)" d="m0 0 2 1-2 6-3 2-9 2-1-3z" fill="#C5648F"/>
<path transform="translate(916,978)" d="m0 0 1 2-9 14-4 4-1-4 2-5 3-3h4l2-5z" fill="#CA6992"/>
<path transform="translate(1075,663)" d="m0 0 3 4 3 12 1 14-3-4-4-10 1-3 2 4-1-8z" fill="#D16D92"/>
<path transform="translate(1061,675)" d="m0 0 8 1 4 3h-5l-6 3-7-1 5-5z" fill="#F7C3AE"/>
<path transform="translate(540,506)" d="m0 0h5l-4 4-5 2h-7v-3l-4-1z" fill="#C56691"/>
<path transform="translate(232,492)" d="m0 0h8l-3 3-10 4-2-1-9-1v-1z" fill="#D893C9"/>
<path transform="translate(466,989)" d="m0 0 11 1 8 1-3 1v2l-9-1-5 4-2-4z" fill="#F5BDB2"/>
<path transform="translate(716,1175)" d="m0 0 5 1 1 8-4 2-1 2-2-7z" fill="#C96891"/>
<path transform="translate(746,473)" d="m0 0 11 3 4 2-4 3-9-2-2-2z" fill="#C86892"/>
<path transform="translate(421,542)" d="m0 0 2 1-2 3v6l-5 2-4-3 1-3z" fill="#C5648E"/>
<path transform="translate(856,528)" d="m0 0 5 1 3 3-6 1v2l-6-1-5-4h6z" fill="#F8C7B8"/>
<path transform="translate(201,334)" d="m0 0 4 2 7 5-2 2v3h-2l-1 4z" fill="#833A8F"/>
<path transform="translate(238,490)" d="m0 0 5 1 4-1-3 3-16 7-9 3h-5l3-2 15-5 7-3-4-2z" fill="#D260AF"/>
<path transform="translate(280,375)" d="m0 0 9 1 27 2v1l-6 1h-10l-20-4z" fill="#7E3A88"/>
<path transform="translate(674,1153)" d="m0 0h5l-3 3-18 8 2-4 7-4z" fill="#E4CBD7"/>
<path transform="translate(918,987)" d="m0 0 1 2-6 9-4 5-5 1-1-2 8-7z" fill="#CE6B92"/>
<path transform="translate(1203,383)" d="m0 0 16 1-4 1 3 4v3l-5-2-10-6z" fill="#69236A"/>
<path transform="translate(244,639)" d="m0 0 4 1-2 8-7-4-3-3z" fill="#763C80"/>
<path transform="translate(506,135)" d="m0 0h8l-5 4-8 6-3-1v-2z" fill="#EAD7E0"/>
<path transform="translate(693,1119)" d="m0 0h7l-4 2-26 6-2-1 8-3 9-3h7z" fill="#A75A91"/>
<path transform="translate(816,73)" d="m0 0 18 1 5 3 4 2-2 1-22-5z" fill="#EED7E1"/>
<path transform="translate(661,674)" d="m0 0h7l-2 5-2 1 4 4-5 2-2-5z" fill="#E6A8D5"/>
<path transform="translate(569,623)" d="m0 0 4 1v2l4 2 9 5-1 3-2 1h-13v-1l12-1-4-4-8-6z" fill="#955397"/>
<path transform="translate(416,821)" d="m0 0 5 3v5l-6 5v-11z" fill="#F5BBE6"/>
<path transform="translate(998,669)" d="m0 0 2 1-1 10-2 4-3-2 1-9z" fill="#F8C7B8"/>
<path transform="translate(904,708)" d="m0 0 2 2 1 4 2 1-2 6-5-4h-3z" fill="#F2BDB5"/>
<path transform="translate(145,492)" d="m0 0 5 2 8 4 1 7-4-2-5-5v-2l-4-2z" fill="#C75BA5"/>
<path transform="translate(783,481)" d="m0 0 9 1 4 2v2l-4 1h-6l-4-4z" fill="#C76891"/>
<path transform="translate(935,228)" d="m0 0h9l9 1-4 1v2l-25-1v-1l11-1z" fill="#80398A"/>
<path transform="translate(594,1563)" d="m0 0 3 3 2 6v6l-5-3-1-8z" fill="#26102A"/>
<path transform="translate(545,547)" d="m0 0h2l-1 5h-12l-2-3z" fill="#F7C4AF"/>
<path transform="translate(651,1164)" d="m0 0 4 1-1 2-11 6-4 1 1-4z" fill="#E8D1DA"/>
<path transform="translate(695,557)" d="m0 0h2l1 7h-9l-1-2 1-4z" fill="#F7C5B7"/>
<path transform="translate(925,74)" d="m0 0 24 2v1l-29 1 2-3z" fill="#CFA8C7"/>
<path transform="translate(451,768)" d="m0 0h10l-4 3 2 3-3 3v-2l-6-2-1-4z" fill="#B46197"/>
<path transform="translate(764,204)" d="m0 0 5 1 5 2v2l2 1-8 1-3-1z" fill="#73357D"/>
<path transform="translate(332,672)" d="m0 0 4 1-5 5h-6l-4-3z" fill="#DEBED4"/>
<path transform="translate(237,297)" d="m0 0h8l3 3-1 4 1 2-4-2-7-6z" fill="#CC59A7"/>
<path transform="translate(693,120)" d="m0 0 2 2 2 12v6l-2-2-2-6-1-1v-9z" fill="#733177"/>
<path transform="translate(598,493)" d="m0 0 2 1-3 3-5 3-5-1-4-2z" fill="#C56691"/>
<path transform="translate(1208,463)" d="m0 0 4 3h-2l-1 8-1 19h-1v-26z" fill="#6D2162"/>
<path transform="translate(539,1113)" d="m0 0 6 4 1 3-2 3h-2v-2l-3-1-1-6z" fill="#F8C7B7"/>
<path transform="translate(474,943)" d="m0 0 4 2 2 2 4 2-4 2-6-1-2-6z" fill="#F8C7B9"/>
<path transform="translate(1112,502)" d="m0 0 4 4 7 9-1 2h-2l-1 7h-1l-1-11-5-9z" fill="#631F5C"/>
<path transform="translate(670,344)" d="m0 0 4 4v2l-24-2v-1l16-1z" fill="#BF4EB4"/>
<path transform="translate(668,305)" d="m0 0 7 5-1 4h-3l-2 3-1-2z" fill="#BA4CAB"/>
<path transform="translate(463,986)" d="m0 0h17v1l-6 1 3 2-11-1-1 2z" fill="#D27194"/>
<path transform="translate(350,671)" d="m0 0h1l2 6v4l2 1-6-1-4-3z" fill="#763C80"/>
<path transform="translate(1206,489)" d="m0 0h1v7l-1 4-4-2-2-4 1-3 4 1z" fill="#CB52B2"/>
<path transform="translate(707,1115)" d="m0 0 4 1v1l-9 2-9 1h-4l3-2 5-2z" fill="#C86891"/>
<path transform="translate(265,601)" d="m0 0 8 2-5 7-3-1-1-5z" fill="#E9D4E1"/>
<path transform="translate(261,367)" d="m0 0 5 1 12 4v2l3 1-7-1-13-5z" fill="#863D9A"/>
<path transform="translate(1103,485)" d="m0 0 4 5 6 12-2 1-9-15z" fill="#76266E"/>
<path transform="translate(940,474)" d="m0 0 2 1-10 9-2 2-1-2-3-2z" fill="#511B51"/>
<path transform="translate(674,649)" d="m0 0 8 1v2h2l-1 2-18-2v-1z" fill="#C86993"/>
<path transform="translate(408,616)" d="m0 0 4 1v4l6 2 5 3-2 1-13-6z" fill="#CB6A92"/>
<path transform="translate(563,544)" d="m0 0h2l-1 5h-7l-5-2v-1z" fill="#F7C4AF"/>
<path transform="translate(472,293)" d="m0 0 2 1-7 7-2 3h-2l-2 4-5 4 2-4 11-12z" fill="#F1B0E5"/>
<path transform="translate(967,79)" d="m0 0 14 1 4 2v2l-7-1-11-3z" fill="#EDD6E5"/>
<path transform="translate(843,80)" d="m0 0h10l12 5 1 2-10-3-13-3z" fill="#D9B7D3"/>
<path transform="translate(498,355)" d="m0 0 2 1-4 5h-17v-1h14l1-4z" fill="#EFA9E5"/>
<path transform="translate(979,989)" d="m0 0h3v5l-4 4v-2l-3-1 2-5z" fill="#F7C5B7"/>
<path transform="translate(578,976)" d="m0 0 5 1 2 2-8 3h-3l2-4z" fill="#EDB1AF"/>
<path transform="translate(601,630)" d="m0 0 3 1-7 2h-5v2l-5 1v-3-2h9z" fill="#D48798"/>
<path transform="translate(929,512)" d="m0 0 2 4-5 7-2-4v-3h2v-2z" fill="#C24DAB"/>
<path transform="translate(608,661)" d="m0 0 2 1-8 8-4 7-1-3 6-10z" fill="#C6648E"/>
<path transform="translate(681,642)" d="m0 0 9 1 12 5v3l-3-1 1-2-9-2-10-3z" fill="#CE6B91"/>
<path transform="translate(758,420)" d="m0 0h5l-5 5-2-1v-2h-16v-1z" fill="#631F5D"/>
<path transform="translate(1068,1308)" d="m0 0h6l-1 5-9-1 1-3z" fill="#2D1132"/>
<path transform="translate(1058,928)" d="m0 0 2 2 1 7-5 1 1-8z" fill="#8C4083"/>
<path transform="translate(396,266)" d="m0 0 2 1-6 7-3 3v-4l-4-1z" fill="#D55EA7"/>
<path transform="translate(420,860)" d="m0 0h2l-1 4-2 7-4-1 3-8z" fill="#F8C1DA"/>
<path transform="translate(447,765)" d="m0 0h10l5 1v2h-11z" fill="#F2DDDE"/>
<path transform="translate(158,512)" d="m0 0 5 3 4 4 4 3-5 1-5-5v-2h-2z" fill="#8D4292"/>
<path transform="translate(692,500)" d="m0 0 2 1-1 4-5 3h-2l-1-3 3-3z" fill="#F7C5BB"/>
<path transform="translate(241,354)" d="m0 0 16 1v1h-8l-2 4-6-4z" fill="#D455B2"/>
<path transform="translate(603,86)" d="m0 0h8l-4 3-10 3 2-4z" fill="#E5CBD4"/>
<path transform="translate(672,68)" d="m0 0h8l6 1v1l-18 2v-2z" fill="#EAD1D9"/>
<path transform="translate(771,1298)" d="m0 0 4 2-10 8-2-2z" fill="#C2618D"/>
<path transform="translate(938,806)" d="m0 0h1v14h-1v-5h-3l-1-4z" fill="#E0919B"/>
<path transform="translate(450,600)" d="m0 0h2l6 14-1 3-7-14z" fill="#87498D"/>
<path transform="translate(1079,566)" d="m0 0 7 3-3 3-6 2z" fill="#BD4CAC"/>
<path transform="translate(273,331)" d="m0 0 10 1-3 3-6 2v-2l-2-1z" fill="#C386AD"/>
<path transform="translate(1164,261)" d="m0 0 2 1-2 3v3l-7-2-1-2z" fill="#E4C5D8"/>
<path transform="translate(984,236)" d="m0 0 9 2 8 3-4 1-15-4z" fill="#85398F"/>
<path transform="translate(614,686)" d="m0 0h1l1 14-1-4-5 1 2-6z" fill="#D399AD"/>
<path transform="translate(691,615)" d="m0 0h8l-1 3h-11l-4-2z" fill="#E2A8AF"/>
<path transform="translate(772,499)" d="m0 0 10 2 1 3-4 1-6-4z" fill="#F7C2B4"/>
<path transform="translate(618,486)" d="m0 0 2 1-7 4-2 2-8-1 3-2z" fill="#B4588A"/>
<path transform="translate(1020,411)" d="m0 0 1 3-4 17-2-4 3-11z" fill="#843A90"/>
<path transform="translate(476,290)" d="m0 0 4 1 5 6-8-2h-2l-1-3z" fill="#F2B0E9"/>
<path transform="translate(1139,993)" d="m0 0m-8 1h8l6 1v1l-17 1v-2z" fill="#D6B1CD"/>
<path transform="translate(430,749)" d="m0 0 3 3 6 7-1 3-3-1-5-10z" fill="#C66B97"/>
<path transform="translate(418,698)" d="m0 0 5 1v6l-3-1-1 4-1-3z" fill="#ECD7DF"/>
<path transform="translate(1e3 562)" d="m0 0 2 3 1 4h-7l-2-2 4-3 2 1z" fill="#B849A9"/>
<path transform="translate(710,489)" d="m0 0 2 1-8 8-4-2z" fill="#F7C3B4"/>
<path transform="translate(295,447)" d="m0 0 1 4-8 8-1 2-3-1 10-11z" fill="#CA50B4"/>
<path transform="translate(279,438)" d="m0 0 6 1-2 4-2 1-4-2v-3z" fill="#E9D5DF"/>
<path transform="translate(532,1304)" d="m0 0h1v15l-3 1v-7z" fill="#C9A1C3"/>
<path transform="translate(800,763)" d="m0 0h3l1 8-1 4v-2h-2z" fill="#F8C7B7"/>
<path transform="translate(406,499)" d="m0 0 12 3 3 3h-7l-4-3-4-2z" fill="#913CA7"/>
<path transform="translate(742,437)" d="m0 0m-1 1m-2 1 2 1-5 5 1 4h-3l-1-4zm-8 8 2 1-2 1z" fill="#CB53B2"/>
<path transform="translate(768,1122)" d="m0 0m-2 1h2l-1 4-4 4-3-1 2-4z" fill="#CA6891"/>
<path transform="translate(645,784)" d="m0 0h13v1l-8 1v1h-7l-3-2z" fill="#9D599D"/>
<path transform="translate(685,779)" d="m0 0h5l-4 3-9 2v-3z" fill="#9A3A75"/>
<path transform="translate(729,707)" d="m0 0h6v10h-1v-5l-5-2z" fill="#DB8EC1"/>
<path transform="translate(844,517)" d="m0 0 6 1v4l-6 1-1-3z" fill="#F7C3B4"/>
<path transform="translate(385,482)" d="m0 0 5 2-3 2-4 1v2l-5-2-1-2 4-1z" fill="#7E3C8B"/>
<path transform="translate(596,663)" d="m0 0h1l-1 9h-3v-3l-2-1 1-2 3-1z" fill="#F7C3B7"/>
<path transform="translate(680,617)" d="m0 0h7l-3 1 2 5h-5l-2-3z" fill="#F8C7B8"/>
<path transform="translate(1281,563)" d="m0 0 5 2 1 2h-2v2h-3l-1 4z" fill="#EFCED9"/>
<path transform="translate(1188,423)" d="m0 0 5 5 6 9h-3l-8-12z" fill="#8C2E7D"/>
<path transform="translate(535,1341)" d="m0 0h1l1 9-2-1-4 1 2-6z" fill="#521B5B"/>
<path transform="translate(1041,1121)" d="m0 0 6 1-1 4-3 1-4-2z" fill="#F8C7B9"/>
<path transform="translate(253,484)" d="m0 0 3 1-14 7-1-2z" fill="#E8A4D5"/>
<path transform="translate(1248,349)" d="m0 0 5 5 1 2-9-3-3-2h6z" fill="#763C80"/>
<path transform="translate(465,275)" d="m0 0 5 2 1 4-4 1-2-2v-2l-2-2z" fill="#F8BDE8"/>
<path transform="translate(445,1392)" d="m0 0h5l-3 3-6 4h-2l1-3z" fill="#E4C9D7"/>
<path transform="translate(757,1130)" d="m0 0 2 1-2 1zm-1 2m-2 1 2 1-4 4-2 4h-2l-1 2v-3z" fill="#CB6991"/>
<path transform="translate(536,992)" d="m0 0h9l2 1-1 2-4 2-2-3z" fill="#F8C7B8"/>
<path transform="translate(415,823)" d="m0 0 2 4h2l1 3-5 4z" fill="#D38198"/>
<path transform="translate(749,682)" d="m0 0 2 2v15h-1l-2-11z" fill="#D2889B"/>
<path transform="translate(661,677)" d="m0 0 7 6-2 2-3 1-2-5z" fill="#E2A8B2"/>
<path transform="translate(836,500)" d="m0 0 4 2 1 2h-11l4-3z" fill="#9040A0"/>
<path transform="translate(168,501)" d="m0 0h10l1 3h-7l-4-2z" fill="#F3B0E9"/>
<path transform="translate(383,489)" d="m0 0 9 3 5 3-2 1-7-3h-3v-2h-2z" fill="#8F3AA0"/>
<path transform="translate(851,479)" d="m0 0 2 1-7 5-5-1 1-2z" fill="#8F498B"/>
<path transform="translate(276,468)" d="m0 0 2 2-4 4-5 2-1-2z" fill="#CF53B2"/>
<path transform="translate(613,102)" d="m0 0 2 1-5 5-3-2v-2z" fill="#EBADDC"/>
</svg>
